G04 #@! TF.FileFunction,Soldermask,Top*
%FSLAX46Y46*%
G04 Gerber Fmt 4.6, Leading zero omitted, Abs format (unit mm)*
G04 Created by KiCad (PCBNEW 4.0.7-e2-6376~58~ubuntu16.04.1) date Fri Sep  8 10:58:52 2017*
%MOMM*%
%LPD*%
G01*
G04 APERTURE LIST*
%ADD10C,0.100000*%
%ADD11R,1.600000X0.800000*%
%ADD12R,1.400000X1.650000*%
%ADD13R,2.200000X1.470000*%
%ADD14O,2.200000X1.470000*%
%ADD15R,1.700000X1.100000*%
%ADD16R,1.100000X1.700000*%
%ADD17R,2.100000X2.100000*%
%ADD18O,2.100000X2.100000*%
G04 APERTURE END LIST*
D10*
D11*
X145160000Y-95567500D03*
X145160000Y-96202500D03*
X145160000Y-96837500D03*
X145160000Y-97472500D03*
X145160000Y-98107500D03*
X145160000Y-98742500D03*
X145160000Y-99377500D03*
X145160000Y-100012500D03*
X145160000Y-100647500D03*
X145160000Y-101282500D03*
X145160000Y-101917500D03*
X145160000Y-102552500D03*
X145160000Y-103187500D03*
X145160000Y-103822500D03*
X145160000Y-104457500D03*
X145160000Y-105092500D03*
X145160000Y-105727500D03*
X145160000Y-106362500D03*
X145160000Y-106997500D03*
X145160000Y-107632500D03*
X145160000Y-108267500D03*
X145160000Y-108902500D03*
X145160000Y-109537500D03*
X145160000Y-110172500D03*
X154560000Y-110172500D03*
X154560000Y-109537500D03*
X154560000Y-108902500D03*
X154560000Y-108267500D03*
X154560000Y-107632500D03*
X154560000Y-106997500D03*
X154560000Y-106362500D03*
X154560000Y-105727500D03*
X154560000Y-105092500D03*
X154560000Y-104457500D03*
X154560000Y-103822500D03*
X154560000Y-103187500D03*
X154560000Y-102552500D03*
X154560000Y-101917500D03*
X154560000Y-101282500D03*
X154560000Y-100647500D03*
X154560000Y-100012500D03*
X154560000Y-99377500D03*
X154560000Y-98742500D03*
X154560000Y-98107500D03*
X154560000Y-97472500D03*
X154560000Y-96837500D03*
X154560000Y-96202500D03*
X154560000Y-95567500D03*
D12*
X151114000Y-93218000D03*
X149114000Y-93218000D03*
D13*
X149860000Y-112522000D03*
D14*
X149860000Y-113792000D03*
X149860000Y-115062000D03*
X149860000Y-116332000D03*
D15*
X141478000Y-92268000D03*
X141478000Y-94168000D03*
X138684000Y-92268000D03*
X138684000Y-94168000D03*
D16*
X156530000Y-114554000D03*
X158430000Y-114554000D03*
X156530000Y-112522000D03*
X158430000Y-112522000D03*
X156530000Y-116586000D03*
X158430000Y-116586000D03*
D17*
X127000000Y-91440000D03*
D18*
X129540000Y-91440000D03*
X127000000Y-93980000D03*
X129540000Y-93980000D03*
X127000000Y-96520000D03*
X129540000Y-96520000D03*
X127000000Y-99060000D03*
X129540000Y-99060000D03*
X127000000Y-101600000D03*
X129540000Y-101600000D03*
X127000000Y-104140000D03*
X129540000Y-104140000D03*
X127000000Y-106680000D03*
X129540000Y-106680000D03*
X127000000Y-109220000D03*
X129540000Y-109220000D03*
X127000000Y-111760000D03*
X129540000Y-111760000D03*
X127000000Y-114300000D03*
X129540000Y-114300000D03*
D17*
X170180000Y-91440000D03*
D18*
X172720000Y-91440000D03*
X170180000Y-93980000D03*
X172720000Y-93980000D03*
X170180000Y-96520000D03*
X172720000Y-96520000D03*
X170180000Y-99060000D03*
X172720000Y-99060000D03*
X170180000Y-101600000D03*
X172720000Y-101600000D03*
X170180000Y-104140000D03*
X172720000Y-104140000D03*
X170180000Y-106680000D03*
X172720000Y-106680000D03*
X170180000Y-109220000D03*
X172720000Y-109220000D03*
X170180000Y-111760000D03*
X172720000Y-111760000D03*
X170180000Y-114300000D03*
X172720000Y-114300000D03*
M02*
