G04 #@! TF.FileFunction,Paste,Top*
%FSLAX46Y46*%
G04 Gerber Fmt 4.6, Leading zero omitted, Abs format (unit mm)*
G04 Created by KiCad (PCBNEW 4.0.6-e0-6349~53~ubuntu16.04.1) date Thu Aug 24 17:13:08 2017*
%MOMM*%
%LPD*%
G01*
G04 APERTURE LIST*
%ADD10C,0.100000*%
%ADD11R,1.200000X0.400000*%
%ADD12R,1.000000X1.250000*%
%ADD13R,1.300000X0.700000*%
%ADD14R,0.700000X1.300000*%
G04 APERTURE END LIST*
D10*
D11*
X145160000Y-95567500D03*
X145160000Y-96202500D03*
X145160000Y-96837500D03*
X145160000Y-97472500D03*
X145160000Y-98107500D03*
X145160000Y-98742500D03*
X145160000Y-99377500D03*
X145160000Y-100012500D03*
X145160000Y-100647500D03*
X145160000Y-101282500D03*
X145160000Y-101917500D03*
X145160000Y-102552500D03*
X145160000Y-103187500D03*
X145160000Y-103822500D03*
X145160000Y-104457500D03*
X145160000Y-105092500D03*
X145160000Y-105727500D03*
X145160000Y-106362500D03*
X145160000Y-106997500D03*
X145160000Y-107632500D03*
X145160000Y-108267500D03*
X145160000Y-108902500D03*
X145160000Y-109537500D03*
X145160000Y-110172500D03*
X154560000Y-110172500D03*
X154560000Y-109537500D03*
X154560000Y-108902500D03*
X154560000Y-108267500D03*
X154560000Y-107632500D03*
X154560000Y-106997500D03*
X154560000Y-106362500D03*
X154560000Y-105727500D03*
X154560000Y-105092500D03*
X154560000Y-104457500D03*
X154560000Y-103822500D03*
X154560000Y-103187500D03*
X154560000Y-102552500D03*
X154560000Y-101917500D03*
X154560000Y-101282500D03*
X154560000Y-100647500D03*
X154560000Y-100012500D03*
X154560000Y-99377500D03*
X154560000Y-98742500D03*
X154560000Y-98107500D03*
X154560000Y-97472500D03*
X154560000Y-96837500D03*
X154560000Y-96202500D03*
X154560000Y-95567500D03*
D12*
X151114000Y-93218000D03*
X149114000Y-93218000D03*
D13*
X141478000Y-92268000D03*
X141478000Y-94168000D03*
X138684000Y-92268000D03*
X138684000Y-94168000D03*
D14*
X156530000Y-114554000D03*
X158430000Y-114554000D03*
X156530000Y-112522000D03*
X158430000Y-112522000D03*
X156530000Y-116586000D03*
X158430000Y-116586000D03*
M02*
