G04 #@! TF.FileFunction,Legend,Bot*
%FSLAX46Y46*%
G04 Gerber Fmt 4.6, Leading zero omitted, Abs format (unit mm)*
G04 Created by KiCad (PCBNEW 4.0.7-e2-6376~58~ubuntu16.04.1) date Fri Sep  8 10:58:52 2017*
%MOMM*%
%LPD*%
G01*
G04 APERTURE LIST*
%ADD10C,0.100000*%
%ADD11C,0.120000*%
%ADD12C,0.150000*%
G04 APERTURE END LIST*
D10*
D11*
X125670000Y-92710000D02*
X125670000Y-115630000D01*
X125670000Y-115630000D02*
X130870000Y-115630000D01*
X130870000Y-115630000D02*
X130870000Y-90110000D01*
X130870000Y-90110000D02*
X128270000Y-90110000D01*
X128270000Y-90110000D02*
X128270000Y-92710000D01*
X128270000Y-92710000D02*
X125670000Y-92710000D01*
X125670000Y-91440000D02*
X125670000Y-90110000D01*
X125670000Y-90110000D02*
X126940000Y-90110000D01*
X168850000Y-92710000D02*
X168850000Y-115630000D01*
X168850000Y-115630000D02*
X174050000Y-115630000D01*
X174050000Y-115630000D02*
X174050000Y-90110000D01*
X174050000Y-90110000D02*
X171450000Y-90110000D01*
X171450000Y-90110000D02*
X171450000Y-92710000D01*
X171450000Y-92710000D02*
X168850000Y-92710000D01*
X168850000Y-91440000D02*
X168850000Y-90110000D01*
X168850000Y-90110000D02*
X170120000Y-90110000D01*
D12*
X129031905Y-89562381D02*
X129031905Y-88562381D01*
X129031905Y-89038571D02*
X128460476Y-89038571D01*
X128460476Y-89562381D02*
X128460476Y-88562381D01*
X127460476Y-89562381D02*
X128031905Y-89562381D01*
X127746191Y-89562381D02*
X127746191Y-88562381D01*
X127841429Y-88705238D01*
X127936667Y-88800476D01*
X128031905Y-88848095D01*
X172211905Y-89562381D02*
X172211905Y-88562381D01*
X172211905Y-89038571D02*
X171640476Y-89038571D01*
X171640476Y-89562381D02*
X171640476Y-88562381D01*
X171211905Y-88657619D02*
X171164286Y-88610000D01*
X171069048Y-88562381D01*
X170830952Y-88562381D01*
X170735714Y-88610000D01*
X170688095Y-88657619D01*
X170640476Y-88752857D01*
X170640476Y-88848095D01*
X170688095Y-88990952D01*
X171259524Y-89562381D01*
X170640476Y-89562381D01*
M02*
