G04 #@! TF.FileFunction,Copper,L1,Top,Signal*
%FSLAX46Y46*%
G04 Gerber Fmt 4.6, Leading zero omitted, Abs format (unit mm)*
G04 Created by KiCad (PCBNEW 4.0.7-e2-6376~58~ubuntu16.04.1) date Fri Sep  8 10:58:52 2017*
%MOMM*%
%LPD*%
G01*
G04 APERTURE LIST*
%ADD10C,0.100000*%
%ADD11R,1.200000X0.400000*%
%ADD12R,1.000000X1.250000*%
%ADD13R,1.800000X1.070000*%
%ADD14O,1.800000X1.070000*%
%ADD15R,1.300000X0.700000*%
%ADD16R,0.700000X1.300000*%
%ADD17R,1.700000X1.700000*%
%ADD18O,1.700000X1.700000*%
%ADD19C,0.600000*%
%ADD20C,0.250000*%
%ADD21C,1.000000*%
%ADD22C,0.700000*%
%ADD23C,0.500000*%
%ADD24C,0.254000*%
G04 APERTURE END LIST*
D10*
D11*
X145160000Y-95567500D03*
X145160000Y-96202500D03*
X145160000Y-96837500D03*
X145160000Y-97472500D03*
X145160000Y-98107500D03*
X145160000Y-98742500D03*
X145160000Y-99377500D03*
X145160000Y-100012500D03*
X145160000Y-100647500D03*
X145160000Y-101282500D03*
X145160000Y-101917500D03*
X145160000Y-102552500D03*
X145160000Y-103187500D03*
X145160000Y-103822500D03*
X145160000Y-104457500D03*
X145160000Y-105092500D03*
X145160000Y-105727500D03*
X145160000Y-106362500D03*
X145160000Y-106997500D03*
X145160000Y-107632500D03*
X145160000Y-108267500D03*
X145160000Y-108902500D03*
X145160000Y-109537500D03*
X145160000Y-110172500D03*
X154560000Y-110172500D03*
X154560000Y-109537500D03*
X154560000Y-108902500D03*
X154560000Y-108267500D03*
X154560000Y-107632500D03*
X154560000Y-106997500D03*
X154560000Y-106362500D03*
X154560000Y-105727500D03*
X154560000Y-105092500D03*
X154560000Y-104457500D03*
X154560000Y-103822500D03*
X154560000Y-103187500D03*
X154560000Y-102552500D03*
X154560000Y-101917500D03*
X154560000Y-101282500D03*
X154560000Y-100647500D03*
X154560000Y-100012500D03*
X154560000Y-99377500D03*
X154560000Y-98742500D03*
X154560000Y-98107500D03*
X154560000Y-97472500D03*
X154560000Y-96837500D03*
X154560000Y-96202500D03*
X154560000Y-95567500D03*
D12*
X151114000Y-93218000D03*
X149114000Y-93218000D03*
D13*
X149860000Y-112522000D03*
D14*
X149860000Y-113792000D03*
X149860000Y-115062000D03*
X149860000Y-116332000D03*
D15*
X141478000Y-92268000D03*
X141478000Y-94168000D03*
X138684000Y-92268000D03*
X138684000Y-94168000D03*
D16*
X156530000Y-114554000D03*
X158430000Y-114554000D03*
X156530000Y-112522000D03*
X158430000Y-112522000D03*
X156530000Y-116586000D03*
X158430000Y-116586000D03*
D17*
X127000000Y-91440000D03*
D18*
X129540000Y-91440000D03*
X127000000Y-93980000D03*
X129540000Y-93980000D03*
X127000000Y-96520000D03*
X129540000Y-96520000D03*
X127000000Y-99060000D03*
X129540000Y-99060000D03*
X127000000Y-101600000D03*
X129540000Y-101600000D03*
X127000000Y-104140000D03*
X129540000Y-104140000D03*
X127000000Y-106680000D03*
X129540000Y-106680000D03*
X127000000Y-109220000D03*
X129540000Y-109220000D03*
X127000000Y-111760000D03*
X129540000Y-111760000D03*
X127000000Y-114300000D03*
X129540000Y-114300000D03*
D17*
X170180000Y-91440000D03*
D18*
X172720000Y-91440000D03*
X170180000Y-93980000D03*
X172720000Y-93980000D03*
X170180000Y-96520000D03*
X172720000Y-96520000D03*
X170180000Y-99060000D03*
X172720000Y-99060000D03*
X170180000Y-101600000D03*
X172720000Y-101600000D03*
X170180000Y-104140000D03*
X172720000Y-104140000D03*
X170180000Y-106680000D03*
X172720000Y-106680000D03*
X170180000Y-109220000D03*
X172720000Y-109220000D03*
X170180000Y-111760000D03*
X172720000Y-111760000D03*
X170180000Y-114300000D03*
X172720000Y-114300000D03*
D19*
X147066000Y-109474000D03*
X149114000Y-93218000D03*
X147066000Y-103124000D03*
D20*
X154560000Y-95567500D02*
X154495500Y-95567500D01*
X154495500Y-95567500D02*
X154178000Y-95250000D01*
X154178000Y-95250000D02*
X154178000Y-93218000D01*
X154686000Y-95441500D02*
X154686000Y-94996000D01*
D21*
X154686000Y-94996000D02*
X154686000Y-93218000D01*
D20*
X154686000Y-95441500D02*
X154560000Y-95567500D01*
D22*
X151114000Y-93218000D02*
X154178000Y-93218000D01*
X154178000Y-93218000D02*
X154686000Y-93218000D01*
X141478000Y-92268000D02*
X141478000Y-88900000D01*
X141478000Y-88900000D02*
X141478000Y-89154000D01*
X141478000Y-89154000D02*
X141478000Y-88900000D01*
X138684000Y-92268000D02*
X138684000Y-88900000D01*
X138684000Y-88900000D02*
X138684000Y-89154000D01*
X138684000Y-89154000D02*
X138684000Y-88900000D01*
D21*
X127000000Y-88900000D02*
X136398000Y-88900000D01*
X136398000Y-88900000D02*
X138684000Y-88900000D01*
X138684000Y-88900000D02*
X141478000Y-88900000D01*
X141478000Y-88900000D02*
X154432000Y-88900000D01*
X154686000Y-89154000D02*
X154686000Y-93218000D01*
X154432000Y-88900000D02*
X154686000Y-89154000D01*
X127000000Y-88900000D02*
X127000000Y-91440000D01*
D20*
X147002500Y-109537500D02*
X147066000Y-109474000D01*
X147002500Y-109537500D02*
X145160000Y-109537500D01*
X145160000Y-103187500D02*
X147002500Y-103187500D01*
X147002500Y-103187500D02*
X147066000Y-103124000D01*
X145160000Y-110172500D02*
X145160000Y-109537500D01*
X127000000Y-93980000D02*
X127000000Y-93726000D01*
X127000000Y-93726000D02*
X128016000Y-92710000D01*
X128016000Y-92710000D02*
X130810000Y-92710000D01*
X130810000Y-92710000D02*
X133667500Y-95567500D01*
X133667500Y-95567500D02*
X145160000Y-95567500D01*
X129540000Y-96520000D02*
X131572000Y-96520000D01*
X131889500Y-96837500D02*
X145160000Y-96837500D01*
X131572000Y-96520000D02*
X131889500Y-96837500D01*
X145096500Y-96774000D02*
X145160000Y-96837500D01*
X127000000Y-96520000D02*
X128270000Y-95250000D01*
X132270500Y-96202500D02*
X145160000Y-96202500D01*
X131318000Y-95250000D02*
X132270500Y-96202500D01*
X128270000Y-95250000D02*
X131318000Y-95250000D01*
X137350500Y-98107500D02*
X145160000Y-98107500D01*
X136398000Y-99060000D02*
X137350500Y-98107500D01*
X129540000Y-99060000D02*
X136398000Y-99060000D01*
X127000000Y-99060000D02*
X128270000Y-97790000D01*
X128270000Y-97790000D02*
X136652000Y-97790000D01*
X136652000Y-97790000D02*
X136969500Y-97472500D01*
X136969500Y-97472500D02*
X145160000Y-97472500D01*
X138874500Y-99377500D02*
X145160000Y-99377500D01*
X136652000Y-101600000D02*
X138874500Y-99377500D01*
X129540000Y-101600000D02*
X136652000Y-101600000D01*
X127000000Y-101600000D02*
X127000000Y-101346000D01*
X127000000Y-101346000D02*
X128016000Y-100330000D01*
X128016000Y-100330000D02*
X136906000Y-100330000D01*
X136906000Y-100330000D02*
X138493500Y-98742500D01*
X138493500Y-98742500D02*
X145160000Y-98742500D01*
X140144500Y-100647500D02*
X145160000Y-100647500D01*
X136652000Y-104140000D02*
X140144500Y-100647500D01*
X129540000Y-104140000D02*
X136652000Y-104140000D01*
X127000000Y-104140000D02*
X128270000Y-102870000D01*
X128270000Y-102870000D02*
X136652000Y-102870000D01*
X136652000Y-102870000D02*
X139509500Y-100012500D01*
X139509500Y-100012500D02*
X145160000Y-100012500D01*
X141414500Y-101917500D02*
X145160000Y-101917500D01*
X136652000Y-106680000D02*
X141414500Y-101917500D01*
X129540000Y-106680000D02*
X136652000Y-106680000D01*
X127000000Y-106680000D02*
X128270000Y-105410000D01*
X128270000Y-105410000D02*
X136652000Y-105410000D01*
X136652000Y-105410000D02*
X140779500Y-101282500D01*
X140779500Y-101282500D02*
X145160000Y-101282500D01*
X142557500Y-103822500D02*
X145160000Y-103822500D01*
X137160000Y-109220000D02*
X142557500Y-103822500D01*
X129540000Y-109220000D02*
X137160000Y-109220000D01*
X127000000Y-109220000D02*
X128270000Y-107950000D01*
X128270000Y-107950000D02*
X136906000Y-107950000D01*
X136906000Y-107950000D02*
X142303500Y-102552500D01*
X142303500Y-102552500D02*
X145160000Y-102552500D01*
X129540000Y-111760000D02*
X130810000Y-111760000D01*
X142938500Y-104457500D02*
X145160000Y-104457500D01*
X137160000Y-110236000D02*
X142938500Y-104457500D01*
X132334000Y-110236000D02*
X137160000Y-110236000D01*
X130810000Y-111760000D02*
X132334000Y-110236000D01*
X141478000Y-94168000D02*
X146492000Y-94168000D01*
X147383500Y-107632500D02*
X145160000Y-107632500D01*
X148082000Y-106934000D02*
X147383500Y-107632500D01*
X148082000Y-95758000D02*
X148082000Y-106934000D01*
X146492000Y-94168000D02*
X148082000Y-95758000D01*
X127000000Y-111760000D02*
X128270000Y-113030000D01*
X142811500Y-107632500D02*
X145160000Y-107632500D01*
X138176000Y-112268000D02*
X142811500Y-107632500D01*
X134874000Y-112268000D02*
X138176000Y-112268000D01*
X131064000Y-116078000D02*
X134874000Y-112268000D01*
X129032000Y-116078000D02*
X131064000Y-116078000D01*
X128270000Y-115316000D02*
X129032000Y-116078000D01*
X128270000Y-113030000D02*
X128270000Y-115316000D01*
X129540000Y-114300000D02*
X130048000Y-114300000D01*
X130048000Y-114300000D02*
X133096000Y-111252000D01*
X133096000Y-111252000D02*
X137668000Y-111252000D01*
X137668000Y-111252000D02*
X143827500Y-105092500D01*
X143827500Y-105092500D02*
X145160000Y-105092500D01*
X138684000Y-94168000D02*
X139258000Y-94168000D01*
X139258000Y-94168000D02*
X140208000Y-93218000D01*
X140208000Y-93218000D02*
X146558000Y-93218000D01*
X146558000Y-93218000D02*
X148844000Y-95504000D01*
X148844000Y-95504000D02*
X148844000Y-107188000D01*
X148844000Y-107188000D02*
X147764500Y-108267500D01*
X147764500Y-108267500D02*
X145160000Y-108267500D01*
X127000000Y-114300000D02*
X127000000Y-116078000D01*
X143446500Y-108267500D02*
X145160000Y-108267500D01*
X138684000Y-113030000D02*
X143446500Y-108267500D01*
X135382000Y-113030000D02*
X138684000Y-113030000D01*
X131572000Y-116840000D02*
X135382000Y-113030000D01*
X127762000Y-116840000D02*
X131572000Y-116840000D01*
X127000000Y-116078000D02*
X127762000Y-116840000D01*
X170180000Y-91440000D02*
X168656000Y-91440000D01*
X168656000Y-91440000D02*
X163893500Y-96202500D01*
X163893500Y-96202500D02*
X154560000Y-96202500D01*
X164655500Y-97472500D02*
X154560000Y-97472500D01*
X166878000Y-95250000D02*
X164655500Y-97472500D01*
X171196000Y-95250000D02*
X166878000Y-95250000D01*
X172720000Y-93980000D02*
X172466000Y-93980000D01*
X172466000Y-93980000D02*
X171196000Y-95250000D01*
X170180000Y-93980000D02*
X167132000Y-93980000D01*
X167132000Y-93980000D02*
X164274500Y-96837500D01*
X164274500Y-96837500D02*
X154560000Y-96837500D01*
X165417500Y-98742500D02*
X154560000Y-98742500D01*
X166370000Y-97790000D02*
X165417500Y-98742500D01*
X171450000Y-97790000D02*
X166370000Y-97790000D01*
X172720000Y-96520000D02*
X171450000Y-97790000D01*
X170180000Y-96520000D02*
X166624000Y-96520000D01*
X166624000Y-96520000D02*
X165036500Y-98107500D01*
X165036500Y-98107500D02*
X154560000Y-98107500D01*
X164782500Y-100012500D02*
X154560000Y-100012500D01*
X165100000Y-100330000D02*
X164782500Y-100012500D01*
X171450000Y-100330000D02*
X165100000Y-100330000D01*
X172720000Y-99060000D02*
X171450000Y-100330000D01*
X170180000Y-99060000D02*
X169418000Y-99060000D01*
X169418000Y-99060000D02*
X169100500Y-99377500D01*
X169100500Y-99377500D02*
X154560000Y-99377500D01*
X170180000Y-101600000D02*
X165100000Y-101600000D01*
X165100000Y-101600000D02*
X164147500Y-100647500D01*
X164147500Y-100647500D02*
X154560000Y-100647500D01*
X163512500Y-101282500D02*
X154560000Y-101282500D01*
X165100000Y-102870000D02*
X163512500Y-101282500D01*
X171450000Y-102870000D02*
X165100000Y-102870000D01*
X172720000Y-104140000D02*
X171450000Y-102870000D01*
X170180000Y-104140000D02*
X165100000Y-104140000D01*
X165100000Y-104140000D02*
X162877500Y-101917500D01*
X162877500Y-101917500D02*
X154560000Y-101917500D01*
X162242500Y-102552500D02*
X154560000Y-102552500D01*
X165100000Y-105410000D02*
X162242500Y-102552500D01*
X171450000Y-105410000D02*
X165100000Y-105410000D01*
X172720000Y-106680000D02*
X171450000Y-105410000D01*
X170180000Y-106680000D02*
X165100000Y-106680000D01*
X165100000Y-106680000D02*
X161607500Y-103187500D01*
X161607500Y-103187500D02*
X154560000Y-103187500D01*
X161607500Y-104457500D02*
X154560000Y-104457500D01*
X165100000Y-107950000D02*
X161607500Y-104457500D01*
X171450000Y-107950000D02*
X165100000Y-107950000D01*
X172720000Y-109220000D02*
X171450000Y-107950000D01*
X170180000Y-109220000D02*
X165100000Y-109220000D01*
X165100000Y-109220000D02*
X160972500Y-105092500D01*
X160972500Y-105092500D02*
X154560000Y-105092500D01*
X160337500Y-105727500D02*
X154560000Y-105727500D01*
X165100000Y-110490000D02*
X160337500Y-105727500D01*
X171450000Y-110490000D02*
X165100000Y-110490000D01*
X172720000Y-111760000D02*
X171450000Y-110490000D01*
X170180000Y-111760000D02*
X165100000Y-111760000D01*
X165100000Y-111760000D02*
X159702500Y-106362500D01*
X159702500Y-106362500D02*
X154560000Y-106362500D01*
X159067500Y-106997500D02*
X154560000Y-106997500D01*
X165100000Y-113030000D02*
X159067500Y-106997500D01*
X171450000Y-113030000D02*
X165100000Y-113030000D01*
X172720000Y-114300000D02*
X171450000Y-113030000D01*
X170180000Y-114300000D02*
X165100000Y-114300000D01*
X165100000Y-114300000D02*
X158432500Y-107632500D01*
X158432500Y-107632500D02*
X154560000Y-107632500D01*
D23*
X156530000Y-112522000D02*
X149860000Y-112522000D01*
X156530000Y-114554000D02*
X153416000Y-114554000D01*
X152908000Y-115062000D02*
X149860000Y-115062000D01*
X153416000Y-114554000D02*
X152908000Y-115062000D01*
X156530000Y-116586000D02*
X153162000Y-116586000D01*
X152908000Y-116332000D02*
X149860000Y-116332000D01*
X153162000Y-116586000D02*
X152908000Y-116332000D01*
D20*
X154560000Y-108267500D02*
X157797500Y-108267500D01*
X161290000Y-114554000D02*
X158430000Y-114554000D01*
X162052000Y-113792000D02*
X161290000Y-114554000D01*
X162052000Y-112522000D02*
X162052000Y-113792000D01*
X157797500Y-108267500D02*
X162052000Y-112522000D01*
X154560000Y-108902500D02*
X157162500Y-108902500D01*
X159766000Y-112522000D02*
X158430000Y-112522000D01*
X160020000Y-112268000D02*
X159766000Y-112522000D01*
X160020000Y-111760000D02*
X160020000Y-112268000D01*
X157162500Y-108902500D02*
X160020000Y-111760000D01*
X154560000Y-110172500D02*
X156908500Y-110172500D01*
X157988000Y-116586000D02*
X158430000Y-116586000D01*
X157480000Y-116078000D02*
X157988000Y-116586000D01*
X157480000Y-110744000D02*
X157480000Y-116078000D01*
X156908500Y-110172500D02*
X157480000Y-110744000D01*
D24*
G36*
X126662856Y-88086062D02*
X126377039Y-88277039D01*
X126186062Y-88562856D01*
X126119000Y-88900000D01*
X126119000Y-90207369D01*
X126008810Y-90228103D01*
X125879135Y-90311546D01*
X125792141Y-90438866D01*
X125761536Y-90590000D01*
X125761536Y-92290000D01*
X125788103Y-92431190D01*
X125871546Y-92560865D01*
X125998866Y-92647859D01*
X126150000Y-92678464D01*
X127331944Y-92678464D01*
X127222039Y-92788369D01*
X127024117Y-92749000D01*
X126975883Y-92749000D01*
X126504800Y-92842704D01*
X126105435Y-93109552D01*
X125838587Y-93508917D01*
X125744883Y-93980000D01*
X125838587Y-94451083D01*
X126105435Y-94850448D01*
X126504800Y-95117296D01*
X126975883Y-95211000D01*
X127024117Y-95211000D01*
X127495200Y-95117296D01*
X127894565Y-94850448D01*
X128151788Y-94465488D01*
X128267361Y-94744525D01*
X128076362Y-94782517D01*
X127912204Y-94892204D01*
X127433898Y-95370510D01*
X127024117Y-95289000D01*
X126975883Y-95289000D01*
X126504800Y-95382704D01*
X126105435Y-95649552D01*
X125838587Y-96048917D01*
X125744883Y-96520000D01*
X125838587Y-96991083D01*
X126105435Y-97390448D01*
X126504800Y-97657296D01*
X126975883Y-97751000D01*
X127024117Y-97751000D01*
X127495200Y-97657296D01*
X127894565Y-97390448D01*
X128161413Y-96991083D01*
X128255117Y-96520000D01*
X128165604Y-96069988D01*
X128479592Y-95756000D01*
X128574308Y-95756000D01*
X128378587Y-96048917D01*
X128284883Y-96520000D01*
X128378587Y-96991083D01*
X128574308Y-97284000D01*
X128270000Y-97284000D01*
X128076362Y-97322517D01*
X127912204Y-97432204D01*
X127433898Y-97910510D01*
X127024117Y-97829000D01*
X126975883Y-97829000D01*
X126504800Y-97922704D01*
X126105435Y-98189552D01*
X125838587Y-98588917D01*
X125744883Y-99060000D01*
X125838587Y-99531083D01*
X126105435Y-99930448D01*
X126504800Y-100197296D01*
X126975883Y-100291000D01*
X127024117Y-100291000D01*
X127417695Y-100212713D01*
X127222039Y-100408369D01*
X127024117Y-100369000D01*
X126975883Y-100369000D01*
X126504800Y-100462704D01*
X126105435Y-100729552D01*
X125838587Y-101128917D01*
X125744883Y-101600000D01*
X125838587Y-102071083D01*
X126105435Y-102470448D01*
X126504800Y-102737296D01*
X126975883Y-102831000D01*
X127024117Y-102831000D01*
X127495200Y-102737296D01*
X127894565Y-102470448D01*
X128161413Y-102071083D01*
X128255117Y-101600000D01*
X128161413Y-101128917D01*
X128069793Y-100991799D01*
X128225592Y-100836000D01*
X128574308Y-100836000D01*
X128378587Y-101128917D01*
X128284883Y-101600000D01*
X128378587Y-102071083D01*
X128574308Y-102364000D01*
X128270000Y-102364000D01*
X128076362Y-102402517D01*
X127912204Y-102512204D01*
X127433898Y-102990510D01*
X127024117Y-102909000D01*
X126975883Y-102909000D01*
X126504800Y-103002704D01*
X126105435Y-103269552D01*
X125838587Y-103668917D01*
X125744883Y-104140000D01*
X125838587Y-104611083D01*
X126105435Y-105010448D01*
X126504800Y-105277296D01*
X126975883Y-105371000D01*
X127024117Y-105371000D01*
X127495200Y-105277296D01*
X127894565Y-105010448D01*
X128161413Y-104611083D01*
X128255117Y-104140000D01*
X128165604Y-103689988D01*
X128479592Y-103376000D01*
X128574308Y-103376000D01*
X128378587Y-103668917D01*
X128284883Y-104140000D01*
X128378587Y-104611083D01*
X128574308Y-104904000D01*
X128270000Y-104904000D01*
X128076362Y-104942517D01*
X127912204Y-105052204D01*
X127433898Y-105530510D01*
X127024117Y-105449000D01*
X126975883Y-105449000D01*
X126504800Y-105542704D01*
X126105435Y-105809552D01*
X125838587Y-106208917D01*
X125744883Y-106680000D01*
X125838587Y-107151083D01*
X126105435Y-107550448D01*
X126504800Y-107817296D01*
X126975883Y-107911000D01*
X127024117Y-107911000D01*
X127495200Y-107817296D01*
X127894565Y-107550448D01*
X128161413Y-107151083D01*
X128255117Y-106680000D01*
X128165604Y-106229988D01*
X128479592Y-105916000D01*
X128574308Y-105916000D01*
X128378587Y-106208917D01*
X128284883Y-106680000D01*
X128378587Y-107151083D01*
X128574308Y-107444000D01*
X128270000Y-107444000D01*
X128076362Y-107482517D01*
X127912204Y-107592204D01*
X127433898Y-108070510D01*
X127024117Y-107989000D01*
X126975883Y-107989000D01*
X126504800Y-108082704D01*
X126105435Y-108349552D01*
X125838587Y-108748917D01*
X125744883Y-109220000D01*
X125838587Y-109691083D01*
X126105435Y-110090448D01*
X126504800Y-110357296D01*
X126975883Y-110451000D01*
X127024117Y-110451000D01*
X127495200Y-110357296D01*
X127894565Y-110090448D01*
X128161413Y-109691083D01*
X128255117Y-109220000D01*
X128165604Y-108769988D01*
X128479592Y-108456000D01*
X128574308Y-108456000D01*
X128378587Y-108748917D01*
X128284883Y-109220000D01*
X128378587Y-109691083D01*
X128645435Y-110090448D01*
X129044800Y-110357296D01*
X129515883Y-110451000D01*
X129564117Y-110451000D01*
X130035200Y-110357296D01*
X130434565Y-110090448D01*
X130678082Y-109726000D01*
X136954408Y-109726000D01*
X136950408Y-109730000D01*
X132334000Y-109730000D01*
X132140362Y-109768517D01*
X131976204Y-109878204D01*
X130646970Y-111207438D01*
X130434565Y-110889552D01*
X130035200Y-110622704D01*
X129564117Y-110529000D01*
X129515883Y-110529000D01*
X129044800Y-110622704D01*
X128645435Y-110889552D01*
X128378587Y-111288917D01*
X128284883Y-111760000D01*
X128378587Y-112231083D01*
X128645435Y-112630448D01*
X129044800Y-112897296D01*
X129515883Y-112991000D01*
X129564117Y-112991000D01*
X130035200Y-112897296D01*
X130434565Y-112630448D01*
X130678082Y-112266000D01*
X130810000Y-112266000D01*
X131003638Y-112227483D01*
X131167796Y-112117796D01*
X132543592Y-110742000D01*
X137160000Y-110742000D01*
X137353638Y-110703483D01*
X137517796Y-110593796D01*
X143148092Y-104963500D01*
X143240908Y-104963500D01*
X137458408Y-110746000D01*
X133096000Y-110746000D01*
X132902362Y-110784517D01*
X132738204Y-110894204D01*
X130295666Y-113336742D01*
X130035200Y-113162704D01*
X129564117Y-113069000D01*
X129515883Y-113069000D01*
X129044800Y-113162704D01*
X128776000Y-113342311D01*
X128776000Y-113030000D01*
X128737483Y-112836362D01*
X128627796Y-112672204D01*
X128165604Y-112210012D01*
X128255117Y-111760000D01*
X128161413Y-111288917D01*
X127894565Y-110889552D01*
X127495200Y-110622704D01*
X127024117Y-110529000D01*
X126975883Y-110529000D01*
X126504800Y-110622704D01*
X126105435Y-110889552D01*
X125838587Y-111288917D01*
X125744883Y-111760000D01*
X125838587Y-112231083D01*
X126105435Y-112630448D01*
X126504800Y-112897296D01*
X126975883Y-112991000D01*
X127024117Y-112991000D01*
X127433898Y-112909490D01*
X127764000Y-113239592D01*
X127764000Y-113342311D01*
X127495200Y-113162704D01*
X127024117Y-113069000D01*
X126975883Y-113069000D01*
X126504800Y-113162704D01*
X126105435Y-113429552D01*
X125838587Y-113828917D01*
X125744883Y-114300000D01*
X125838587Y-114771083D01*
X126105435Y-115170448D01*
X126494000Y-115430080D01*
X126494000Y-116078000D01*
X126532517Y-116271638D01*
X126642204Y-116435796D01*
X127404204Y-117197796D01*
X127568362Y-117307483D01*
X127762000Y-117346000D01*
X131572000Y-117346000D01*
X131765638Y-117307483D01*
X131929796Y-117197796D01*
X135591592Y-113536000D01*
X138684000Y-113536000D01*
X138877638Y-113497483D01*
X139041796Y-113387796D01*
X143656092Y-108773500D01*
X144171536Y-108773500D01*
X144171536Y-108827939D01*
X144021673Y-108977801D01*
X143925000Y-109211190D01*
X143925000Y-109278750D01*
X144083750Y-109437500D01*
X144196975Y-109437500D01*
X144021673Y-109612801D01*
X143960313Y-109760937D01*
X143925000Y-109796250D01*
X143925000Y-109913750D01*
X143960313Y-109949063D01*
X144021673Y-110097199D01*
X144196975Y-110272500D01*
X144083750Y-110272500D01*
X143925000Y-110431250D01*
X143925000Y-110498810D01*
X144021673Y-110732199D01*
X144200302Y-110910827D01*
X144433691Y-111007500D01*
X144874250Y-111007500D01*
X145033000Y-110848750D01*
X145033000Y-110272500D01*
X144974250Y-110272500D01*
X145033000Y-110213750D01*
X145033000Y-110025500D01*
X145287000Y-110025500D01*
X145287000Y-110213750D01*
X145345750Y-110272500D01*
X145287000Y-110272500D01*
X145287000Y-110848750D01*
X145445750Y-111007500D01*
X145886309Y-111007500D01*
X146119698Y-110910827D01*
X146298327Y-110732199D01*
X146395000Y-110498810D01*
X146395000Y-110431250D01*
X146236250Y-110272500D01*
X146123025Y-110272500D01*
X146298327Y-110097199D01*
X146359687Y-109949063D01*
X146395000Y-109913750D01*
X146395000Y-109796250D01*
X146359687Y-109760937D01*
X146298327Y-109612801D01*
X146123025Y-109437500D01*
X146236250Y-109437500D01*
X146395000Y-109278750D01*
X146395000Y-109211190D01*
X146298327Y-108977801D01*
X146148464Y-108827939D01*
X146148464Y-108773500D01*
X147764500Y-108773500D01*
X147958138Y-108734983D01*
X148122296Y-108625296D01*
X149201796Y-107545796D01*
X149230057Y-107503500D01*
X149311483Y-107381638D01*
X149350000Y-107188000D01*
X149350000Y-95504000D01*
X149311483Y-95310362D01*
X149201796Y-95146204D01*
X148533592Y-94478000D01*
X148828250Y-94478000D01*
X148987000Y-94319250D01*
X148987000Y-93345000D01*
X148137750Y-93345000D01*
X147979000Y-93503750D01*
X147979000Y-93923408D01*
X146915796Y-92860204D01*
X146751638Y-92750517D01*
X146558000Y-92712000D01*
X142497429Y-92712000D01*
X142516464Y-92618000D01*
X142516464Y-92466690D01*
X147979000Y-92466690D01*
X147979000Y-92932250D01*
X148137750Y-93091000D01*
X148987000Y-93091000D01*
X148987000Y-92116750D01*
X148828250Y-91958000D01*
X148487691Y-91958000D01*
X148254302Y-92054673D01*
X148075673Y-92233301D01*
X147979000Y-92466690D01*
X142516464Y-92466690D01*
X142516464Y-91918000D01*
X142489897Y-91776810D01*
X142406454Y-91647135D01*
X142279134Y-91560141D01*
X142209000Y-91545939D01*
X142209000Y-89781000D01*
X153805000Y-89781000D01*
X153805000Y-92487000D01*
X151982519Y-92487000D01*
X151975897Y-92451810D01*
X151892454Y-92322135D01*
X151765134Y-92235141D01*
X151614000Y-92204536D01*
X150614000Y-92204536D01*
X150472810Y-92231103D01*
X150343135Y-92314546D01*
X150256141Y-92441866D01*
X150249000Y-92477130D01*
X150249000Y-92466690D01*
X150152327Y-92233301D01*
X149973698Y-92054673D01*
X149740309Y-91958000D01*
X149399750Y-91958000D01*
X149241000Y-92116750D01*
X149241000Y-93091000D01*
X149261000Y-93091000D01*
X149261000Y-93345000D01*
X149241000Y-93345000D01*
X149241000Y-94319250D01*
X149399750Y-94478000D01*
X149740309Y-94478000D01*
X149973698Y-94381327D01*
X150152327Y-94202699D01*
X150249000Y-93969310D01*
X150249000Y-93967699D01*
X150252103Y-93984190D01*
X150335546Y-94113865D01*
X150462866Y-94200859D01*
X150614000Y-94231464D01*
X151614000Y-94231464D01*
X151755190Y-94204897D01*
X151884865Y-94121454D01*
X151971859Y-93994134D01*
X151980999Y-93949000D01*
X153672000Y-93949000D01*
X153672000Y-95114124D01*
X153602141Y-95216366D01*
X153571536Y-95367500D01*
X153571536Y-95767500D01*
X153594457Y-95889312D01*
X153571536Y-96002500D01*
X153571536Y-96402500D01*
X153594457Y-96524312D01*
X153571536Y-96637500D01*
X153571536Y-97037500D01*
X153594457Y-97159312D01*
X153571536Y-97272500D01*
X153571536Y-97672500D01*
X153594457Y-97794312D01*
X153571536Y-97907500D01*
X153571536Y-98307500D01*
X153594457Y-98429312D01*
X153571536Y-98542500D01*
X153571536Y-98942500D01*
X153594457Y-99064312D01*
X153571536Y-99177500D01*
X153571536Y-99577500D01*
X153594457Y-99699312D01*
X153571536Y-99812500D01*
X153571536Y-100212500D01*
X153594457Y-100334312D01*
X153571536Y-100447500D01*
X153571536Y-100847500D01*
X153594457Y-100969312D01*
X153571536Y-101082500D01*
X153571536Y-101482500D01*
X153594457Y-101604312D01*
X153571536Y-101717500D01*
X153571536Y-102117500D01*
X153594457Y-102239312D01*
X153571536Y-102352500D01*
X153571536Y-102752500D01*
X153594457Y-102874312D01*
X153571536Y-102987500D01*
X153571536Y-103387500D01*
X153594457Y-103509312D01*
X153571536Y-103622500D01*
X153571536Y-104022500D01*
X153594457Y-104144312D01*
X153571536Y-104257500D01*
X153571536Y-104657500D01*
X153594457Y-104779312D01*
X153571536Y-104892500D01*
X153571536Y-105292500D01*
X153594457Y-105414312D01*
X153571536Y-105527500D01*
X153571536Y-105927500D01*
X153594457Y-106049312D01*
X153571536Y-106162500D01*
X153571536Y-106562500D01*
X153594457Y-106684312D01*
X153571536Y-106797500D01*
X153571536Y-107197500D01*
X153594457Y-107319312D01*
X153571536Y-107432500D01*
X153571536Y-107832500D01*
X153594457Y-107954312D01*
X153571536Y-108067500D01*
X153571536Y-108467500D01*
X153594457Y-108589312D01*
X153571536Y-108702500D01*
X153571536Y-109102500D01*
X153594457Y-109224312D01*
X153571536Y-109337500D01*
X153571536Y-109737500D01*
X153594457Y-109859312D01*
X153571536Y-109972500D01*
X153571536Y-110372500D01*
X153598103Y-110513690D01*
X153681546Y-110643365D01*
X153808866Y-110730359D01*
X153960000Y-110760964D01*
X155160000Y-110760964D01*
X155301190Y-110734397D01*
X155388057Y-110678500D01*
X156698908Y-110678500D01*
X156974000Y-110953592D01*
X156974000Y-111502571D01*
X156880000Y-111483536D01*
X156180000Y-111483536D01*
X156038810Y-111510103D01*
X155909135Y-111593546D01*
X155822141Y-111720866D01*
X155791536Y-111872000D01*
X155791536Y-111891000D01*
X151130400Y-111891000D01*
X151121897Y-111845810D01*
X151038454Y-111716135D01*
X150911134Y-111629141D01*
X150760000Y-111598536D01*
X148960000Y-111598536D01*
X148818810Y-111625103D01*
X148689135Y-111708546D01*
X148602141Y-111835866D01*
X148571536Y-111987000D01*
X148571536Y-113057000D01*
X148572949Y-113064509D01*
X148366100Y-113484617D01*
X148491756Y-113665000D01*
X149733000Y-113665000D01*
X149733000Y-113645000D01*
X149987000Y-113645000D01*
X149987000Y-113665000D01*
X151228244Y-113665000D01*
X151353900Y-113484617D01*
X151190621Y-113153000D01*
X155791536Y-113153000D01*
X155791536Y-113172000D01*
X155818103Y-113313190D01*
X155901546Y-113442865D01*
X156028866Y-113529859D01*
X156064997Y-113537176D01*
X156038810Y-113542103D01*
X155909135Y-113625546D01*
X155822141Y-113752866D01*
X155791536Y-113904000D01*
X155791536Y-113923000D01*
X153416000Y-113923000D01*
X153174527Y-113971032D01*
X153174525Y-113971033D01*
X153174526Y-113971033D01*
X152969815Y-114107816D01*
X152646632Y-114431000D01*
X151190621Y-114431000D01*
X151353900Y-114099383D01*
X151228244Y-113919000D01*
X149987000Y-113919000D01*
X149987000Y-113939000D01*
X149733000Y-113939000D01*
X149733000Y-113919000D01*
X148491756Y-113919000D01*
X148366100Y-114099383D01*
X148577883Y-114529512D01*
X148685170Y-114619361D01*
X148623630Y-114711462D01*
X148553904Y-115062000D01*
X148623630Y-115412538D01*
X148813701Y-115697000D01*
X148623630Y-115981462D01*
X148553904Y-116332000D01*
X148623630Y-116682538D01*
X148822194Y-116979710D01*
X149119366Y-117178274D01*
X149469904Y-117248000D01*
X150250096Y-117248000D01*
X150600634Y-117178274D01*
X150897806Y-116979710D01*
X150908971Y-116963000D01*
X152646631Y-116963000D01*
X152715815Y-117032184D01*
X152920526Y-117168968D01*
X152960589Y-117176937D01*
X153162000Y-117217000D01*
X155791536Y-117217000D01*
X155791536Y-117236000D01*
X155818103Y-117377190D01*
X155901546Y-117506865D01*
X156028866Y-117593859D01*
X156180000Y-117624464D01*
X156880000Y-117624464D01*
X157021190Y-117597897D01*
X157150865Y-117514454D01*
X157237859Y-117387134D01*
X157268464Y-117236000D01*
X157268464Y-116582056D01*
X157630204Y-116943796D01*
X157691536Y-116984777D01*
X157691536Y-117236000D01*
X157718103Y-117377190D01*
X157801546Y-117506865D01*
X157928866Y-117593859D01*
X158080000Y-117624464D01*
X158780000Y-117624464D01*
X158921190Y-117597897D01*
X159050865Y-117514454D01*
X159137859Y-117387134D01*
X159168464Y-117236000D01*
X159168464Y-115936000D01*
X159141897Y-115794810D01*
X159058454Y-115665135D01*
X158931134Y-115578141D01*
X158895003Y-115570824D01*
X158921190Y-115565897D01*
X159050865Y-115482454D01*
X159137859Y-115355134D01*
X159168464Y-115204000D01*
X159168464Y-115060000D01*
X161290000Y-115060000D01*
X161483638Y-115021483D01*
X161647796Y-114911796D01*
X162409796Y-114149796D01*
X162443481Y-114099383D01*
X162519483Y-113985638D01*
X162558000Y-113792000D01*
X162558000Y-112522000D01*
X162545980Y-112461572D01*
X164742204Y-114657796D01*
X164906362Y-114767483D01*
X165100000Y-114806000D01*
X169041918Y-114806000D01*
X169285435Y-115170448D01*
X169684800Y-115437296D01*
X170155883Y-115531000D01*
X170204117Y-115531000D01*
X170675200Y-115437296D01*
X171074565Y-115170448D01*
X171341413Y-114771083D01*
X171435117Y-114300000D01*
X171341413Y-113828917D01*
X171145692Y-113536000D01*
X171240408Y-113536000D01*
X171554396Y-113849988D01*
X171464883Y-114300000D01*
X171558587Y-114771083D01*
X171825435Y-115170448D01*
X172224800Y-115437296D01*
X172695883Y-115531000D01*
X172744117Y-115531000D01*
X173215200Y-115437296D01*
X173614565Y-115170448D01*
X173881413Y-114771083D01*
X173975117Y-114300000D01*
X173881413Y-113828917D01*
X173614565Y-113429552D01*
X173215200Y-113162704D01*
X172744117Y-113069000D01*
X172695883Y-113069000D01*
X172286102Y-113150510D01*
X171807796Y-112672204D01*
X171643638Y-112562517D01*
X171450000Y-112524000D01*
X171145692Y-112524000D01*
X171341413Y-112231083D01*
X171435117Y-111760000D01*
X171341413Y-111288917D01*
X171145692Y-110996000D01*
X171240408Y-110996000D01*
X171554396Y-111309988D01*
X171464883Y-111760000D01*
X171558587Y-112231083D01*
X171825435Y-112630448D01*
X172224800Y-112897296D01*
X172695883Y-112991000D01*
X172744117Y-112991000D01*
X173215200Y-112897296D01*
X173614565Y-112630448D01*
X173881413Y-112231083D01*
X173975117Y-111760000D01*
X173881413Y-111288917D01*
X173614565Y-110889552D01*
X173215200Y-110622704D01*
X172744117Y-110529000D01*
X172695883Y-110529000D01*
X172286102Y-110610510D01*
X171807796Y-110132204D01*
X171643638Y-110022517D01*
X171450000Y-109984000D01*
X171145692Y-109984000D01*
X171341413Y-109691083D01*
X171435117Y-109220000D01*
X171341413Y-108748917D01*
X171145692Y-108456000D01*
X171240408Y-108456000D01*
X171554396Y-108769988D01*
X171464883Y-109220000D01*
X171558587Y-109691083D01*
X171825435Y-110090448D01*
X172224800Y-110357296D01*
X172695883Y-110451000D01*
X172744117Y-110451000D01*
X173215200Y-110357296D01*
X173614565Y-110090448D01*
X173881413Y-109691083D01*
X173975117Y-109220000D01*
X173881413Y-108748917D01*
X173614565Y-108349552D01*
X173215200Y-108082704D01*
X172744117Y-107989000D01*
X172695883Y-107989000D01*
X172286102Y-108070510D01*
X171807796Y-107592204D01*
X171643638Y-107482517D01*
X171450000Y-107444000D01*
X171145692Y-107444000D01*
X171341413Y-107151083D01*
X171435117Y-106680000D01*
X171341413Y-106208917D01*
X171145692Y-105916000D01*
X171240408Y-105916000D01*
X171554396Y-106229988D01*
X171464883Y-106680000D01*
X171558587Y-107151083D01*
X171825435Y-107550448D01*
X172224800Y-107817296D01*
X172695883Y-107911000D01*
X172744117Y-107911000D01*
X173215200Y-107817296D01*
X173614565Y-107550448D01*
X173881413Y-107151083D01*
X173975117Y-106680000D01*
X173881413Y-106208917D01*
X173614565Y-105809552D01*
X173215200Y-105542704D01*
X172744117Y-105449000D01*
X172695883Y-105449000D01*
X172286102Y-105530510D01*
X171807796Y-105052204D01*
X171643638Y-104942517D01*
X171450000Y-104904000D01*
X171145692Y-104904000D01*
X171341413Y-104611083D01*
X171435117Y-104140000D01*
X171341413Y-103668917D01*
X171145692Y-103376000D01*
X171240408Y-103376000D01*
X171554396Y-103689988D01*
X171464883Y-104140000D01*
X171558587Y-104611083D01*
X171825435Y-105010448D01*
X172224800Y-105277296D01*
X172695883Y-105371000D01*
X172744117Y-105371000D01*
X173215200Y-105277296D01*
X173614565Y-105010448D01*
X173881413Y-104611083D01*
X173975117Y-104140000D01*
X173881413Y-103668917D01*
X173614565Y-103269552D01*
X173215200Y-103002704D01*
X172744117Y-102909000D01*
X172695883Y-102909000D01*
X172286102Y-102990510D01*
X171807796Y-102512204D01*
X171643638Y-102402517D01*
X171450000Y-102364000D01*
X171145692Y-102364000D01*
X171341413Y-102071083D01*
X171435117Y-101600000D01*
X171464883Y-101600000D01*
X171558587Y-102071083D01*
X171825435Y-102470448D01*
X172224800Y-102737296D01*
X172695883Y-102831000D01*
X172744117Y-102831000D01*
X173215200Y-102737296D01*
X173614565Y-102470448D01*
X173881413Y-102071083D01*
X173975117Y-101600000D01*
X173881413Y-101128917D01*
X173614565Y-100729552D01*
X173215200Y-100462704D01*
X172744117Y-100369000D01*
X172695883Y-100369000D01*
X172224800Y-100462704D01*
X171825435Y-100729552D01*
X171558587Y-101128917D01*
X171464883Y-101600000D01*
X171435117Y-101600000D01*
X171341413Y-101128917D01*
X171145692Y-100836000D01*
X171450000Y-100836000D01*
X171643638Y-100797483D01*
X171807796Y-100687796D01*
X172286102Y-100209490D01*
X172695883Y-100291000D01*
X172744117Y-100291000D01*
X173215200Y-100197296D01*
X173614565Y-99930448D01*
X173881413Y-99531083D01*
X173975117Y-99060000D01*
X173881413Y-98588917D01*
X173614565Y-98189552D01*
X173215200Y-97922704D01*
X172744117Y-97829000D01*
X172695883Y-97829000D01*
X172224800Y-97922704D01*
X171825435Y-98189552D01*
X171558587Y-98588917D01*
X171464883Y-99060000D01*
X171554396Y-99510012D01*
X171240408Y-99824000D01*
X171145692Y-99824000D01*
X171341413Y-99531083D01*
X171435117Y-99060000D01*
X171341413Y-98588917D01*
X171145692Y-98296000D01*
X171450000Y-98296000D01*
X171643638Y-98257483D01*
X171807796Y-98147796D01*
X172286102Y-97669490D01*
X172695883Y-97751000D01*
X172744117Y-97751000D01*
X173215200Y-97657296D01*
X173614565Y-97390448D01*
X173881413Y-96991083D01*
X173975117Y-96520000D01*
X173881413Y-96048917D01*
X173614565Y-95649552D01*
X173215200Y-95382704D01*
X172744117Y-95289000D01*
X172695883Y-95289000D01*
X172224800Y-95382704D01*
X171825435Y-95649552D01*
X171558587Y-96048917D01*
X171464883Y-96520000D01*
X171554396Y-96970012D01*
X171240408Y-97284000D01*
X171145692Y-97284000D01*
X171341413Y-96991083D01*
X171435117Y-96520000D01*
X171341413Y-96048917D01*
X171145692Y-95756000D01*
X171196000Y-95756000D01*
X171389638Y-95717483D01*
X171553796Y-95607796D01*
X172116596Y-95044996D01*
X172224800Y-95117296D01*
X172695883Y-95211000D01*
X172744117Y-95211000D01*
X173215200Y-95117296D01*
X173614565Y-94850448D01*
X173881413Y-94451083D01*
X173975117Y-93980000D01*
X173881413Y-93508917D01*
X173614565Y-93109552D01*
X173215200Y-92842704D01*
X173176053Y-92834917D01*
X173601358Y-92635183D01*
X173991645Y-92206924D01*
X174161476Y-91796890D01*
X174040155Y-91567000D01*
X172847000Y-91567000D01*
X172847000Y-91587000D01*
X172593000Y-91587000D01*
X172593000Y-91567000D01*
X172573000Y-91567000D01*
X172573000Y-91313000D01*
X172593000Y-91313000D01*
X172593000Y-90119181D01*
X172847000Y-90119181D01*
X172847000Y-91313000D01*
X174040155Y-91313000D01*
X174161476Y-91083110D01*
X173991645Y-90673076D01*
X173601358Y-90244817D01*
X173076892Y-89998514D01*
X172847000Y-90119181D01*
X172593000Y-90119181D01*
X172363108Y-89998514D01*
X171838642Y-90244817D01*
X171448355Y-90673076D01*
X171418464Y-90745244D01*
X171418464Y-90590000D01*
X171391897Y-90448810D01*
X171308454Y-90319135D01*
X171181134Y-90232141D01*
X171030000Y-90201536D01*
X169330000Y-90201536D01*
X169188810Y-90228103D01*
X169059135Y-90311546D01*
X168972141Y-90438866D01*
X168941536Y-90590000D01*
X168941536Y-90934000D01*
X168656000Y-90934000D01*
X168462362Y-90972517D01*
X168298204Y-91082204D01*
X163683908Y-95696500D01*
X155548464Y-95696500D01*
X155548464Y-95367500D01*
X155521897Y-95226310D01*
X155521356Y-95225469D01*
X155567000Y-94996000D01*
X155567000Y-89154000D01*
X155499938Y-88816856D01*
X155308961Y-88531039D01*
X155054961Y-88277039D01*
X154769144Y-88086062D01*
X154768832Y-88086000D01*
X174804000Y-88086000D01*
X174804000Y-117654000D01*
X124916000Y-117654000D01*
X124916000Y-88086000D01*
X126663168Y-88086000D01*
X126662856Y-88086062D01*
X126662856Y-88086062D01*
G37*
X126662856Y-88086062D02*
X126377039Y-88277039D01*
X126186062Y-88562856D01*
X126119000Y-88900000D01*
X126119000Y-90207369D01*
X126008810Y-90228103D01*
X125879135Y-90311546D01*
X125792141Y-90438866D01*
X125761536Y-90590000D01*
X125761536Y-92290000D01*
X125788103Y-92431190D01*
X125871546Y-92560865D01*
X125998866Y-92647859D01*
X126150000Y-92678464D01*
X127331944Y-92678464D01*
X127222039Y-92788369D01*
X127024117Y-92749000D01*
X126975883Y-92749000D01*
X126504800Y-92842704D01*
X126105435Y-93109552D01*
X125838587Y-93508917D01*
X125744883Y-93980000D01*
X125838587Y-94451083D01*
X126105435Y-94850448D01*
X126504800Y-95117296D01*
X126975883Y-95211000D01*
X127024117Y-95211000D01*
X127495200Y-95117296D01*
X127894565Y-94850448D01*
X128151788Y-94465488D01*
X128267361Y-94744525D01*
X128076362Y-94782517D01*
X127912204Y-94892204D01*
X127433898Y-95370510D01*
X127024117Y-95289000D01*
X126975883Y-95289000D01*
X126504800Y-95382704D01*
X126105435Y-95649552D01*
X125838587Y-96048917D01*
X125744883Y-96520000D01*
X125838587Y-96991083D01*
X126105435Y-97390448D01*
X126504800Y-97657296D01*
X126975883Y-97751000D01*
X127024117Y-97751000D01*
X127495200Y-97657296D01*
X127894565Y-97390448D01*
X128161413Y-96991083D01*
X128255117Y-96520000D01*
X128165604Y-96069988D01*
X128479592Y-95756000D01*
X128574308Y-95756000D01*
X128378587Y-96048917D01*
X128284883Y-96520000D01*
X128378587Y-96991083D01*
X128574308Y-97284000D01*
X128270000Y-97284000D01*
X128076362Y-97322517D01*
X127912204Y-97432204D01*
X127433898Y-97910510D01*
X127024117Y-97829000D01*
X126975883Y-97829000D01*
X126504800Y-97922704D01*
X126105435Y-98189552D01*
X125838587Y-98588917D01*
X125744883Y-99060000D01*
X125838587Y-99531083D01*
X126105435Y-99930448D01*
X126504800Y-100197296D01*
X126975883Y-100291000D01*
X127024117Y-100291000D01*
X127417695Y-100212713D01*
X127222039Y-100408369D01*
X127024117Y-100369000D01*
X126975883Y-100369000D01*
X126504800Y-100462704D01*
X126105435Y-100729552D01*
X125838587Y-101128917D01*
X125744883Y-101600000D01*
X125838587Y-102071083D01*
X126105435Y-102470448D01*
X126504800Y-102737296D01*
X126975883Y-102831000D01*
X127024117Y-102831000D01*
X127495200Y-102737296D01*
X127894565Y-102470448D01*
X128161413Y-102071083D01*
X128255117Y-101600000D01*
X128161413Y-101128917D01*
X128069793Y-100991799D01*
X128225592Y-100836000D01*
X128574308Y-100836000D01*
X128378587Y-101128917D01*
X128284883Y-101600000D01*
X128378587Y-102071083D01*
X128574308Y-102364000D01*
X128270000Y-102364000D01*
X128076362Y-102402517D01*
X127912204Y-102512204D01*
X127433898Y-102990510D01*
X127024117Y-102909000D01*
X126975883Y-102909000D01*
X126504800Y-103002704D01*
X126105435Y-103269552D01*
X125838587Y-103668917D01*
X125744883Y-104140000D01*
X125838587Y-104611083D01*
X126105435Y-105010448D01*
X126504800Y-105277296D01*
X126975883Y-105371000D01*
X127024117Y-105371000D01*
X127495200Y-105277296D01*
X127894565Y-105010448D01*
X128161413Y-104611083D01*
X128255117Y-104140000D01*
X128165604Y-103689988D01*
X128479592Y-103376000D01*
X128574308Y-103376000D01*
X128378587Y-103668917D01*
X128284883Y-104140000D01*
X128378587Y-104611083D01*
X128574308Y-104904000D01*
X128270000Y-104904000D01*
X128076362Y-104942517D01*
X127912204Y-105052204D01*
X127433898Y-105530510D01*
X127024117Y-105449000D01*
X126975883Y-105449000D01*
X126504800Y-105542704D01*
X126105435Y-105809552D01*
X125838587Y-106208917D01*
X125744883Y-106680000D01*
X125838587Y-107151083D01*
X126105435Y-107550448D01*
X126504800Y-107817296D01*
X126975883Y-107911000D01*
X127024117Y-107911000D01*
X127495200Y-107817296D01*
X127894565Y-107550448D01*
X128161413Y-107151083D01*
X128255117Y-106680000D01*
X128165604Y-106229988D01*
X128479592Y-105916000D01*
X128574308Y-105916000D01*
X128378587Y-106208917D01*
X128284883Y-106680000D01*
X128378587Y-107151083D01*
X128574308Y-107444000D01*
X128270000Y-107444000D01*
X128076362Y-107482517D01*
X127912204Y-107592204D01*
X127433898Y-108070510D01*
X127024117Y-107989000D01*
X126975883Y-107989000D01*
X126504800Y-108082704D01*
X126105435Y-108349552D01*
X125838587Y-108748917D01*
X125744883Y-109220000D01*
X125838587Y-109691083D01*
X126105435Y-110090448D01*
X126504800Y-110357296D01*
X126975883Y-110451000D01*
X127024117Y-110451000D01*
X127495200Y-110357296D01*
X127894565Y-110090448D01*
X128161413Y-109691083D01*
X128255117Y-109220000D01*
X128165604Y-108769988D01*
X128479592Y-108456000D01*
X128574308Y-108456000D01*
X128378587Y-108748917D01*
X128284883Y-109220000D01*
X128378587Y-109691083D01*
X128645435Y-110090448D01*
X129044800Y-110357296D01*
X129515883Y-110451000D01*
X129564117Y-110451000D01*
X130035200Y-110357296D01*
X130434565Y-110090448D01*
X130678082Y-109726000D01*
X136954408Y-109726000D01*
X136950408Y-109730000D01*
X132334000Y-109730000D01*
X132140362Y-109768517D01*
X131976204Y-109878204D01*
X130646970Y-111207438D01*
X130434565Y-110889552D01*
X130035200Y-110622704D01*
X129564117Y-110529000D01*
X129515883Y-110529000D01*
X129044800Y-110622704D01*
X128645435Y-110889552D01*
X128378587Y-111288917D01*
X128284883Y-111760000D01*
X128378587Y-112231083D01*
X128645435Y-112630448D01*
X129044800Y-112897296D01*
X129515883Y-112991000D01*
X129564117Y-112991000D01*
X130035200Y-112897296D01*
X130434565Y-112630448D01*
X130678082Y-112266000D01*
X130810000Y-112266000D01*
X131003638Y-112227483D01*
X131167796Y-112117796D01*
X132543592Y-110742000D01*
X137160000Y-110742000D01*
X137353638Y-110703483D01*
X137517796Y-110593796D01*
X143148092Y-104963500D01*
X143240908Y-104963500D01*
X137458408Y-110746000D01*
X133096000Y-110746000D01*
X132902362Y-110784517D01*
X132738204Y-110894204D01*
X130295666Y-113336742D01*
X130035200Y-113162704D01*
X129564117Y-113069000D01*
X129515883Y-113069000D01*
X129044800Y-113162704D01*
X128776000Y-113342311D01*
X128776000Y-113030000D01*
X128737483Y-112836362D01*
X128627796Y-112672204D01*
X128165604Y-112210012D01*
X128255117Y-111760000D01*
X128161413Y-111288917D01*
X127894565Y-110889552D01*
X127495200Y-110622704D01*
X127024117Y-110529000D01*
X126975883Y-110529000D01*
X126504800Y-110622704D01*
X126105435Y-110889552D01*
X125838587Y-111288917D01*
X125744883Y-111760000D01*
X125838587Y-112231083D01*
X126105435Y-112630448D01*
X126504800Y-112897296D01*
X126975883Y-112991000D01*
X127024117Y-112991000D01*
X127433898Y-112909490D01*
X127764000Y-113239592D01*
X127764000Y-113342311D01*
X127495200Y-113162704D01*
X127024117Y-113069000D01*
X126975883Y-113069000D01*
X126504800Y-113162704D01*
X126105435Y-113429552D01*
X125838587Y-113828917D01*
X125744883Y-114300000D01*
X125838587Y-114771083D01*
X126105435Y-115170448D01*
X126494000Y-115430080D01*
X126494000Y-116078000D01*
X126532517Y-116271638D01*
X126642204Y-116435796D01*
X127404204Y-117197796D01*
X127568362Y-117307483D01*
X127762000Y-117346000D01*
X131572000Y-117346000D01*
X131765638Y-117307483D01*
X131929796Y-117197796D01*
X135591592Y-113536000D01*
X138684000Y-113536000D01*
X138877638Y-113497483D01*
X139041796Y-113387796D01*
X143656092Y-108773500D01*
X144171536Y-108773500D01*
X144171536Y-108827939D01*
X144021673Y-108977801D01*
X143925000Y-109211190D01*
X143925000Y-109278750D01*
X144083750Y-109437500D01*
X144196975Y-109437500D01*
X144021673Y-109612801D01*
X143960313Y-109760937D01*
X143925000Y-109796250D01*
X143925000Y-109913750D01*
X143960313Y-109949063D01*
X144021673Y-110097199D01*
X144196975Y-110272500D01*
X144083750Y-110272500D01*
X143925000Y-110431250D01*
X143925000Y-110498810D01*
X144021673Y-110732199D01*
X144200302Y-110910827D01*
X144433691Y-111007500D01*
X144874250Y-111007500D01*
X145033000Y-110848750D01*
X145033000Y-110272500D01*
X144974250Y-110272500D01*
X145033000Y-110213750D01*
X145033000Y-110025500D01*
X145287000Y-110025500D01*
X145287000Y-110213750D01*
X145345750Y-110272500D01*
X145287000Y-110272500D01*
X145287000Y-110848750D01*
X145445750Y-111007500D01*
X145886309Y-111007500D01*
X146119698Y-110910827D01*
X146298327Y-110732199D01*
X146395000Y-110498810D01*
X146395000Y-110431250D01*
X146236250Y-110272500D01*
X146123025Y-110272500D01*
X146298327Y-110097199D01*
X146359687Y-109949063D01*
X146395000Y-109913750D01*
X146395000Y-109796250D01*
X146359687Y-109760937D01*
X146298327Y-109612801D01*
X146123025Y-109437500D01*
X146236250Y-109437500D01*
X146395000Y-109278750D01*
X146395000Y-109211190D01*
X146298327Y-108977801D01*
X146148464Y-108827939D01*
X146148464Y-108773500D01*
X147764500Y-108773500D01*
X147958138Y-108734983D01*
X148122296Y-108625296D01*
X149201796Y-107545796D01*
X149230057Y-107503500D01*
X149311483Y-107381638D01*
X149350000Y-107188000D01*
X149350000Y-95504000D01*
X149311483Y-95310362D01*
X149201796Y-95146204D01*
X148533592Y-94478000D01*
X148828250Y-94478000D01*
X148987000Y-94319250D01*
X148987000Y-93345000D01*
X148137750Y-93345000D01*
X147979000Y-93503750D01*
X147979000Y-93923408D01*
X146915796Y-92860204D01*
X146751638Y-92750517D01*
X146558000Y-92712000D01*
X142497429Y-92712000D01*
X142516464Y-92618000D01*
X142516464Y-92466690D01*
X147979000Y-92466690D01*
X147979000Y-92932250D01*
X148137750Y-93091000D01*
X148987000Y-93091000D01*
X148987000Y-92116750D01*
X148828250Y-91958000D01*
X148487691Y-91958000D01*
X148254302Y-92054673D01*
X148075673Y-92233301D01*
X147979000Y-92466690D01*
X142516464Y-92466690D01*
X142516464Y-91918000D01*
X142489897Y-91776810D01*
X142406454Y-91647135D01*
X142279134Y-91560141D01*
X142209000Y-91545939D01*
X142209000Y-89781000D01*
X153805000Y-89781000D01*
X153805000Y-92487000D01*
X151982519Y-92487000D01*
X151975897Y-92451810D01*
X151892454Y-92322135D01*
X151765134Y-92235141D01*
X151614000Y-92204536D01*
X150614000Y-92204536D01*
X150472810Y-92231103D01*
X150343135Y-92314546D01*
X150256141Y-92441866D01*
X150249000Y-92477130D01*
X150249000Y-92466690D01*
X150152327Y-92233301D01*
X149973698Y-92054673D01*
X149740309Y-91958000D01*
X149399750Y-91958000D01*
X149241000Y-92116750D01*
X149241000Y-93091000D01*
X149261000Y-93091000D01*
X149261000Y-93345000D01*
X149241000Y-93345000D01*
X149241000Y-94319250D01*
X149399750Y-94478000D01*
X149740309Y-94478000D01*
X149973698Y-94381327D01*
X150152327Y-94202699D01*
X150249000Y-93969310D01*
X150249000Y-93967699D01*
X150252103Y-93984190D01*
X150335546Y-94113865D01*
X150462866Y-94200859D01*
X150614000Y-94231464D01*
X151614000Y-94231464D01*
X151755190Y-94204897D01*
X151884865Y-94121454D01*
X151971859Y-93994134D01*
X151980999Y-93949000D01*
X153672000Y-93949000D01*
X153672000Y-95114124D01*
X153602141Y-95216366D01*
X153571536Y-95367500D01*
X153571536Y-95767500D01*
X153594457Y-95889312D01*
X153571536Y-96002500D01*
X153571536Y-96402500D01*
X153594457Y-96524312D01*
X153571536Y-96637500D01*
X153571536Y-97037500D01*
X153594457Y-97159312D01*
X153571536Y-97272500D01*
X153571536Y-97672500D01*
X153594457Y-97794312D01*
X153571536Y-97907500D01*
X153571536Y-98307500D01*
X153594457Y-98429312D01*
X153571536Y-98542500D01*
X153571536Y-98942500D01*
X153594457Y-99064312D01*
X153571536Y-99177500D01*
X153571536Y-99577500D01*
X153594457Y-99699312D01*
X153571536Y-99812500D01*
X153571536Y-100212500D01*
X153594457Y-100334312D01*
X153571536Y-100447500D01*
X153571536Y-100847500D01*
X153594457Y-100969312D01*
X153571536Y-101082500D01*
X153571536Y-101482500D01*
X153594457Y-101604312D01*
X153571536Y-101717500D01*
X153571536Y-102117500D01*
X153594457Y-102239312D01*
X153571536Y-102352500D01*
X153571536Y-102752500D01*
X153594457Y-102874312D01*
X153571536Y-102987500D01*
X153571536Y-103387500D01*
X153594457Y-103509312D01*
X153571536Y-103622500D01*
X153571536Y-104022500D01*
X153594457Y-104144312D01*
X153571536Y-104257500D01*
X153571536Y-104657500D01*
X153594457Y-104779312D01*
X153571536Y-104892500D01*
X153571536Y-105292500D01*
X153594457Y-105414312D01*
X153571536Y-105527500D01*
X153571536Y-105927500D01*
X153594457Y-106049312D01*
X153571536Y-106162500D01*
X153571536Y-106562500D01*
X153594457Y-106684312D01*
X153571536Y-106797500D01*
X153571536Y-107197500D01*
X153594457Y-107319312D01*
X153571536Y-107432500D01*
X153571536Y-107832500D01*
X153594457Y-107954312D01*
X153571536Y-108067500D01*
X153571536Y-108467500D01*
X153594457Y-108589312D01*
X153571536Y-108702500D01*
X153571536Y-109102500D01*
X153594457Y-109224312D01*
X153571536Y-109337500D01*
X153571536Y-109737500D01*
X153594457Y-109859312D01*
X153571536Y-109972500D01*
X153571536Y-110372500D01*
X153598103Y-110513690D01*
X153681546Y-110643365D01*
X153808866Y-110730359D01*
X153960000Y-110760964D01*
X155160000Y-110760964D01*
X155301190Y-110734397D01*
X155388057Y-110678500D01*
X156698908Y-110678500D01*
X156974000Y-110953592D01*
X156974000Y-111502571D01*
X156880000Y-111483536D01*
X156180000Y-111483536D01*
X156038810Y-111510103D01*
X155909135Y-111593546D01*
X155822141Y-111720866D01*
X155791536Y-111872000D01*
X155791536Y-111891000D01*
X151130400Y-111891000D01*
X151121897Y-111845810D01*
X151038454Y-111716135D01*
X150911134Y-111629141D01*
X150760000Y-111598536D01*
X148960000Y-111598536D01*
X148818810Y-111625103D01*
X148689135Y-111708546D01*
X148602141Y-111835866D01*
X148571536Y-111987000D01*
X148571536Y-113057000D01*
X148572949Y-113064509D01*
X148366100Y-113484617D01*
X148491756Y-113665000D01*
X149733000Y-113665000D01*
X149733000Y-113645000D01*
X149987000Y-113645000D01*
X149987000Y-113665000D01*
X151228244Y-113665000D01*
X151353900Y-113484617D01*
X151190621Y-113153000D01*
X155791536Y-113153000D01*
X155791536Y-113172000D01*
X155818103Y-113313190D01*
X155901546Y-113442865D01*
X156028866Y-113529859D01*
X156064997Y-113537176D01*
X156038810Y-113542103D01*
X155909135Y-113625546D01*
X155822141Y-113752866D01*
X155791536Y-113904000D01*
X155791536Y-113923000D01*
X153416000Y-113923000D01*
X153174527Y-113971032D01*
X153174525Y-113971033D01*
X153174526Y-113971033D01*
X152969815Y-114107816D01*
X152646632Y-114431000D01*
X151190621Y-114431000D01*
X151353900Y-114099383D01*
X151228244Y-113919000D01*
X149987000Y-113919000D01*
X149987000Y-113939000D01*
X149733000Y-113939000D01*
X149733000Y-113919000D01*
X148491756Y-113919000D01*
X148366100Y-114099383D01*
X148577883Y-114529512D01*
X148685170Y-114619361D01*
X148623630Y-114711462D01*
X148553904Y-115062000D01*
X148623630Y-115412538D01*
X148813701Y-115697000D01*
X148623630Y-115981462D01*
X148553904Y-116332000D01*
X148623630Y-116682538D01*
X148822194Y-116979710D01*
X149119366Y-117178274D01*
X149469904Y-117248000D01*
X150250096Y-117248000D01*
X150600634Y-117178274D01*
X150897806Y-116979710D01*
X150908971Y-116963000D01*
X152646631Y-116963000D01*
X152715815Y-117032184D01*
X152920526Y-117168968D01*
X152960589Y-117176937D01*
X153162000Y-117217000D01*
X155791536Y-117217000D01*
X155791536Y-117236000D01*
X155818103Y-117377190D01*
X155901546Y-117506865D01*
X156028866Y-117593859D01*
X156180000Y-117624464D01*
X156880000Y-117624464D01*
X157021190Y-117597897D01*
X157150865Y-117514454D01*
X157237859Y-117387134D01*
X157268464Y-117236000D01*
X157268464Y-116582056D01*
X157630204Y-116943796D01*
X157691536Y-116984777D01*
X157691536Y-117236000D01*
X157718103Y-117377190D01*
X157801546Y-117506865D01*
X157928866Y-117593859D01*
X158080000Y-117624464D01*
X158780000Y-117624464D01*
X158921190Y-117597897D01*
X159050865Y-117514454D01*
X159137859Y-117387134D01*
X159168464Y-117236000D01*
X159168464Y-115936000D01*
X159141897Y-115794810D01*
X159058454Y-115665135D01*
X158931134Y-115578141D01*
X158895003Y-115570824D01*
X158921190Y-115565897D01*
X159050865Y-115482454D01*
X159137859Y-115355134D01*
X159168464Y-115204000D01*
X159168464Y-115060000D01*
X161290000Y-115060000D01*
X161483638Y-115021483D01*
X161647796Y-114911796D01*
X162409796Y-114149796D01*
X162443481Y-114099383D01*
X162519483Y-113985638D01*
X162558000Y-113792000D01*
X162558000Y-112522000D01*
X162545980Y-112461572D01*
X164742204Y-114657796D01*
X164906362Y-114767483D01*
X165100000Y-114806000D01*
X169041918Y-114806000D01*
X169285435Y-115170448D01*
X169684800Y-115437296D01*
X170155883Y-115531000D01*
X170204117Y-115531000D01*
X170675200Y-115437296D01*
X171074565Y-115170448D01*
X171341413Y-114771083D01*
X171435117Y-114300000D01*
X171341413Y-113828917D01*
X171145692Y-113536000D01*
X171240408Y-113536000D01*
X171554396Y-113849988D01*
X171464883Y-114300000D01*
X171558587Y-114771083D01*
X171825435Y-115170448D01*
X172224800Y-115437296D01*
X172695883Y-115531000D01*
X172744117Y-115531000D01*
X173215200Y-115437296D01*
X173614565Y-115170448D01*
X173881413Y-114771083D01*
X173975117Y-114300000D01*
X173881413Y-113828917D01*
X173614565Y-113429552D01*
X173215200Y-113162704D01*
X172744117Y-113069000D01*
X172695883Y-113069000D01*
X172286102Y-113150510D01*
X171807796Y-112672204D01*
X171643638Y-112562517D01*
X171450000Y-112524000D01*
X171145692Y-112524000D01*
X171341413Y-112231083D01*
X171435117Y-111760000D01*
X171341413Y-111288917D01*
X171145692Y-110996000D01*
X171240408Y-110996000D01*
X171554396Y-111309988D01*
X171464883Y-111760000D01*
X171558587Y-112231083D01*
X171825435Y-112630448D01*
X172224800Y-112897296D01*
X172695883Y-112991000D01*
X172744117Y-112991000D01*
X173215200Y-112897296D01*
X173614565Y-112630448D01*
X173881413Y-112231083D01*
X173975117Y-111760000D01*
X173881413Y-111288917D01*
X173614565Y-110889552D01*
X173215200Y-110622704D01*
X172744117Y-110529000D01*
X172695883Y-110529000D01*
X172286102Y-110610510D01*
X171807796Y-110132204D01*
X171643638Y-110022517D01*
X171450000Y-109984000D01*
X171145692Y-109984000D01*
X171341413Y-109691083D01*
X171435117Y-109220000D01*
X171341413Y-108748917D01*
X171145692Y-108456000D01*
X171240408Y-108456000D01*
X171554396Y-108769988D01*
X171464883Y-109220000D01*
X171558587Y-109691083D01*
X171825435Y-110090448D01*
X172224800Y-110357296D01*
X172695883Y-110451000D01*
X172744117Y-110451000D01*
X173215200Y-110357296D01*
X173614565Y-110090448D01*
X173881413Y-109691083D01*
X173975117Y-109220000D01*
X173881413Y-108748917D01*
X173614565Y-108349552D01*
X173215200Y-108082704D01*
X172744117Y-107989000D01*
X172695883Y-107989000D01*
X172286102Y-108070510D01*
X171807796Y-107592204D01*
X171643638Y-107482517D01*
X171450000Y-107444000D01*
X171145692Y-107444000D01*
X171341413Y-107151083D01*
X171435117Y-106680000D01*
X171341413Y-106208917D01*
X171145692Y-105916000D01*
X171240408Y-105916000D01*
X171554396Y-106229988D01*
X171464883Y-106680000D01*
X171558587Y-107151083D01*
X171825435Y-107550448D01*
X172224800Y-107817296D01*
X172695883Y-107911000D01*
X172744117Y-107911000D01*
X173215200Y-107817296D01*
X173614565Y-107550448D01*
X173881413Y-107151083D01*
X173975117Y-106680000D01*
X173881413Y-106208917D01*
X173614565Y-105809552D01*
X173215200Y-105542704D01*
X172744117Y-105449000D01*
X172695883Y-105449000D01*
X172286102Y-105530510D01*
X171807796Y-105052204D01*
X171643638Y-104942517D01*
X171450000Y-104904000D01*
X171145692Y-104904000D01*
X171341413Y-104611083D01*
X171435117Y-104140000D01*
X171341413Y-103668917D01*
X171145692Y-103376000D01*
X171240408Y-103376000D01*
X171554396Y-103689988D01*
X171464883Y-104140000D01*
X171558587Y-104611083D01*
X171825435Y-105010448D01*
X172224800Y-105277296D01*
X172695883Y-105371000D01*
X172744117Y-105371000D01*
X173215200Y-105277296D01*
X173614565Y-105010448D01*
X173881413Y-104611083D01*
X173975117Y-104140000D01*
X173881413Y-103668917D01*
X173614565Y-103269552D01*
X173215200Y-103002704D01*
X172744117Y-102909000D01*
X172695883Y-102909000D01*
X172286102Y-102990510D01*
X171807796Y-102512204D01*
X171643638Y-102402517D01*
X171450000Y-102364000D01*
X171145692Y-102364000D01*
X171341413Y-102071083D01*
X171435117Y-101600000D01*
X171464883Y-101600000D01*
X171558587Y-102071083D01*
X171825435Y-102470448D01*
X172224800Y-102737296D01*
X172695883Y-102831000D01*
X172744117Y-102831000D01*
X173215200Y-102737296D01*
X173614565Y-102470448D01*
X173881413Y-102071083D01*
X173975117Y-101600000D01*
X173881413Y-101128917D01*
X173614565Y-100729552D01*
X173215200Y-100462704D01*
X172744117Y-100369000D01*
X172695883Y-100369000D01*
X172224800Y-100462704D01*
X171825435Y-100729552D01*
X171558587Y-101128917D01*
X171464883Y-101600000D01*
X171435117Y-101600000D01*
X171341413Y-101128917D01*
X171145692Y-100836000D01*
X171450000Y-100836000D01*
X171643638Y-100797483D01*
X171807796Y-100687796D01*
X172286102Y-100209490D01*
X172695883Y-100291000D01*
X172744117Y-100291000D01*
X173215200Y-100197296D01*
X173614565Y-99930448D01*
X173881413Y-99531083D01*
X173975117Y-99060000D01*
X173881413Y-98588917D01*
X173614565Y-98189552D01*
X173215200Y-97922704D01*
X172744117Y-97829000D01*
X172695883Y-97829000D01*
X172224800Y-97922704D01*
X171825435Y-98189552D01*
X171558587Y-98588917D01*
X171464883Y-99060000D01*
X171554396Y-99510012D01*
X171240408Y-99824000D01*
X171145692Y-99824000D01*
X171341413Y-99531083D01*
X171435117Y-99060000D01*
X171341413Y-98588917D01*
X171145692Y-98296000D01*
X171450000Y-98296000D01*
X171643638Y-98257483D01*
X171807796Y-98147796D01*
X172286102Y-97669490D01*
X172695883Y-97751000D01*
X172744117Y-97751000D01*
X173215200Y-97657296D01*
X173614565Y-97390448D01*
X173881413Y-96991083D01*
X173975117Y-96520000D01*
X173881413Y-96048917D01*
X173614565Y-95649552D01*
X173215200Y-95382704D01*
X172744117Y-95289000D01*
X172695883Y-95289000D01*
X172224800Y-95382704D01*
X171825435Y-95649552D01*
X171558587Y-96048917D01*
X171464883Y-96520000D01*
X171554396Y-96970012D01*
X171240408Y-97284000D01*
X171145692Y-97284000D01*
X171341413Y-96991083D01*
X171435117Y-96520000D01*
X171341413Y-96048917D01*
X171145692Y-95756000D01*
X171196000Y-95756000D01*
X171389638Y-95717483D01*
X171553796Y-95607796D01*
X172116596Y-95044996D01*
X172224800Y-95117296D01*
X172695883Y-95211000D01*
X172744117Y-95211000D01*
X173215200Y-95117296D01*
X173614565Y-94850448D01*
X173881413Y-94451083D01*
X173975117Y-93980000D01*
X173881413Y-93508917D01*
X173614565Y-93109552D01*
X173215200Y-92842704D01*
X173176053Y-92834917D01*
X173601358Y-92635183D01*
X173991645Y-92206924D01*
X174161476Y-91796890D01*
X174040155Y-91567000D01*
X172847000Y-91567000D01*
X172847000Y-91587000D01*
X172593000Y-91587000D01*
X172593000Y-91567000D01*
X172573000Y-91567000D01*
X172573000Y-91313000D01*
X172593000Y-91313000D01*
X172593000Y-90119181D01*
X172847000Y-90119181D01*
X172847000Y-91313000D01*
X174040155Y-91313000D01*
X174161476Y-91083110D01*
X173991645Y-90673076D01*
X173601358Y-90244817D01*
X173076892Y-89998514D01*
X172847000Y-90119181D01*
X172593000Y-90119181D01*
X172363108Y-89998514D01*
X171838642Y-90244817D01*
X171448355Y-90673076D01*
X171418464Y-90745244D01*
X171418464Y-90590000D01*
X171391897Y-90448810D01*
X171308454Y-90319135D01*
X171181134Y-90232141D01*
X171030000Y-90201536D01*
X169330000Y-90201536D01*
X169188810Y-90228103D01*
X169059135Y-90311546D01*
X168972141Y-90438866D01*
X168941536Y-90590000D01*
X168941536Y-90934000D01*
X168656000Y-90934000D01*
X168462362Y-90972517D01*
X168298204Y-91082204D01*
X163683908Y-95696500D01*
X155548464Y-95696500D01*
X155548464Y-95367500D01*
X155521897Y-95226310D01*
X155521356Y-95225469D01*
X155567000Y-94996000D01*
X155567000Y-89154000D01*
X155499938Y-88816856D01*
X155308961Y-88531039D01*
X155054961Y-88277039D01*
X154769144Y-88086062D01*
X154768832Y-88086000D01*
X174804000Y-88086000D01*
X174804000Y-117654000D01*
X124916000Y-117654000D01*
X124916000Y-88086000D01*
X126663168Y-88086000D01*
X126662856Y-88086062D01*
G36*
X137953000Y-91544777D02*
X137892810Y-91556103D01*
X137763135Y-91639546D01*
X137676141Y-91766866D01*
X137645536Y-91918000D01*
X137645536Y-92618000D01*
X137672103Y-92759190D01*
X137755546Y-92888865D01*
X137882866Y-92975859D01*
X138034000Y-93006464D01*
X139334000Y-93006464D01*
X139475190Y-92979897D01*
X139604865Y-92896454D01*
X139691859Y-92769134D01*
X139722464Y-92618000D01*
X139722464Y-91918000D01*
X139695897Y-91776810D01*
X139612454Y-91647135D01*
X139485134Y-91560141D01*
X139415000Y-91545939D01*
X139415000Y-89781000D01*
X140747000Y-89781000D01*
X140747000Y-91544777D01*
X140686810Y-91556103D01*
X140557135Y-91639546D01*
X140470141Y-91766866D01*
X140439536Y-91918000D01*
X140439536Y-92618000D01*
X140457223Y-92712000D01*
X140208000Y-92712000D01*
X140014362Y-92750517D01*
X139850204Y-92860204D01*
X139280872Y-93429536D01*
X138034000Y-93429536D01*
X137892810Y-93456103D01*
X137763135Y-93539546D01*
X137676141Y-93666866D01*
X137645536Y-93818000D01*
X137645536Y-94518000D01*
X137672103Y-94659190D01*
X137755546Y-94788865D01*
X137882866Y-94875859D01*
X138034000Y-94906464D01*
X139334000Y-94906464D01*
X139475190Y-94879897D01*
X139604865Y-94796454D01*
X139691859Y-94669134D01*
X139722464Y-94518000D01*
X139722464Y-94419128D01*
X140417592Y-93724000D01*
X140458571Y-93724000D01*
X140439536Y-93818000D01*
X140439536Y-94518000D01*
X140466103Y-94659190D01*
X140549546Y-94788865D01*
X140676866Y-94875859D01*
X140828000Y-94906464D01*
X142128000Y-94906464D01*
X142269190Y-94879897D01*
X142398865Y-94796454D01*
X142482534Y-94674000D01*
X146282408Y-94674000D01*
X147576000Y-95967592D01*
X147576000Y-106724408D01*
X147173908Y-107126500D01*
X146148464Y-107126500D01*
X146148464Y-106797500D01*
X146125543Y-106675688D01*
X146148464Y-106562500D01*
X146148464Y-106162500D01*
X146125543Y-106040688D01*
X146148464Y-105927500D01*
X146148464Y-105527500D01*
X146125543Y-105405688D01*
X146148464Y-105292500D01*
X146148464Y-104892500D01*
X146125543Y-104770688D01*
X146148464Y-104657500D01*
X146148464Y-104257500D01*
X146125543Y-104135688D01*
X146148464Y-104022500D01*
X146148464Y-103897061D01*
X146298327Y-103747199D01*
X146395000Y-103513810D01*
X146395000Y-103446250D01*
X146236250Y-103287500D01*
X145944589Y-103287500D01*
X145911134Y-103264641D01*
X145760000Y-103234036D01*
X144560000Y-103234036D01*
X144418810Y-103260603D01*
X144377011Y-103287500D01*
X144083750Y-103287500D01*
X144054750Y-103316500D01*
X142557500Y-103316500D01*
X142363862Y-103355017D01*
X142227322Y-103446250D01*
X142199704Y-103464704D01*
X136950408Y-108714000D01*
X130678082Y-108714000D01*
X130505692Y-108456000D01*
X136906000Y-108456000D01*
X137099638Y-108417483D01*
X137263796Y-108307796D01*
X142513092Y-103058500D01*
X144054750Y-103058500D01*
X144083750Y-103087500D01*
X144375411Y-103087500D01*
X144408866Y-103110359D01*
X144560000Y-103140964D01*
X145760000Y-103140964D01*
X145901190Y-103114397D01*
X145942989Y-103087500D01*
X146236250Y-103087500D01*
X146395000Y-102928750D01*
X146395000Y-102861190D01*
X146298327Y-102627801D01*
X146148464Y-102477939D01*
X146148464Y-102352500D01*
X146125543Y-102230688D01*
X146148464Y-102117500D01*
X146148464Y-101717500D01*
X146125543Y-101595688D01*
X146148464Y-101482500D01*
X146148464Y-101082500D01*
X146125543Y-100960688D01*
X146148464Y-100847500D01*
X146148464Y-100447500D01*
X146125543Y-100325688D01*
X146148464Y-100212500D01*
X146148464Y-99812500D01*
X146125543Y-99690688D01*
X146148464Y-99577500D01*
X146148464Y-99177500D01*
X146125543Y-99055688D01*
X146148464Y-98942500D01*
X146148464Y-98542500D01*
X146125543Y-98420688D01*
X146148464Y-98307500D01*
X146148464Y-97907500D01*
X146125543Y-97785688D01*
X146148464Y-97672500D01*
X146148464Y-97272500D01*
X146125543Y-97150688D01*
X146148464Y-97037500D01*
X146148464Y-96637500D01*
X146125543Y-96515688D01*
X146148464Y-96402500D01*
X146148464Y-96002500D01*
X146125543Y-95880688D01*
X146148464Y-95767500D01*
X146148464Y-95367500D01*
X146121897Y-95226310D01*
X146038454Y-95096635D01*
X145911134Y-95009641D01*
X145760000Y-94979036D01*
X144560000Y-94979036D01*
X144418810Y-95005603D01*
X144331943Y-95061500D01*
X133877092Y-95061500D01*
X131167796Y-92352204D01*
X131003638Y-92242517D01*
X130810000Y-92204000D01*
X130505692Y-92204000D01*
X130701413Y-91911083D01*
X130795117Y-91440000D01*
X130701413Y-90968917D01*
X130434565Y-90569552D01*
X130035200Y-90302704D01*
X129564117Y-90209000D01*
X129515883Y-90209000D01*
X129044800Y-90302704D01*
X128645435Y-90569552D01*
X128378587Y-90968917D01*
X128284883Y-91440000D01*
X128378587Y-91911083D01*
X128574308Y-92204000D01*
X128238464Y-92204000D01*
X128238464Y-90590000D01*
X128211897Y-90448810D01*
X128128454Y-90319135D01*
X128001134Y-90232141D01*
X127881000Y-90207814D01*
X127881000Y-89781000D01*
X137953000Y-89781000D01*
X137953000Y-91544777D01*
X137953000Y-91544777D01*
G37*
X137953000Y-91544777D02*
X137892810Y-91556103D01*
X137763135Y-91639546D01*
X137676141Y-91766866D01*
X137645536Y-91918000D01*
X137645536Y-92618000D01*
X137672103Y-92759190D01*
X137755546Y-92888865D01*
X137882866Y-92975859D01*
X138034000Y-93006464D01*
X139334000Y-93006464D01*
X139475190Y-92979897D01*
X139604865Y-92896454D01*
X139691859Y-92769134D01*
X139722464Y-92618000D01*
X139722464Y-91918000D01*
X139695897Y-91776810D01*
X139612454Y-91647135D01*
X139485134Y-91560141D01*
X139415000Y-91545939D01*
X139415000Y-89781000D01*
X140747000Y-89781000D01*
X140747000Y-91544777D01*
X140686810Y-91556103D01*
X140557135Y-91639546D01*
X140470141Y-91766866D01*
X140439536Y-91918000D01*
X140439536Y-92618000D01*
X140457223Y-92712000D01*
X140208000Y-92712000D01*
X140014362Y-92750517D01*
X139850204Y-92860204D01*
X139280872Y-93429536D01*
X138034000Y-93429536D01*
X137892810Y-93456103D01*
X137763135Y-93539546D01*
X137676141Y-93666866D01*
X137645536Y-93818000D01*
X137645536Y-94518000D01*
X137672103Y-94659190D01*
X137755546Y-94788865D01*
X137882866Y-94875859D01*
X138034000Y-94906464D01*
X139334000Y-94906464D01*
X139475190Y-94879897D01*
X139604865Y-94796454D01*
X139691859Y-94669134D01*
X139722464Y-94518000D01*
X139722464Y-94419128D01*
X140417592Y-93724000D01*
X140458571Y-93724000D01*
X140439536Y-93818000D01*
X140439536Y-94518000D01*
X140466103Y-94659190D01*
X140549546Y-94788865D01*
X140676866Y-94875859D01*
X140828000Y-94906464D01*
X142128000Y-94906464D01*
X142269190Y-94879897D01*
X142398865Y-94796454D01*
X142482534Y-94674000D01*
X146282408Y-94674000D01*
X147576000Y-95967592D01*
X147576000Y-106724408D01*
X147173908Y-107126500D01*
X146148464Y-107126500D01*
X146148464Y-106797500D01*
X146125543Y-106675688D01*
X146148464Y-106562500D01*
X146148464Y-106162500D01*
X146125543Y-106040688D01*
X146148464Y-105927500D01*
X146148464Y-105527500D01*
X146125543Y-105405688D01*
X146148464Y-105292500D01*
X146148464Y-104892500D01*
X146125543Y-104770688D01*
X146148464Y-104657500D01*
X146148464Y-104257500D01*
X146125543Y-104135688D01*
X146148464Y-104022500D01*
X146148464Y-103897061D01*
X146298327Y-103747199D01*
X146395000Y-103513810D01*
X146395000Y-103446250D01*
X146236250Y-103287500D01*
X145944589Y-103287500D01*
X145911134Y-103264641D01*
X145760000Y-103234036D01*
X144560000Y-103234036D01*
X144418810Y-103260603D01*
X144377011Y-103287500D01*
X144083750Y-103287500D01*
X144054750Y-103316500D01*
X142557500Y-103316500D01*
X142363862Y-103355017D01*
X142227322Y-103446250D01*
X142199704Y-103464704D01*
X136950408Y-108714000D01*
X130678082Y-108714000D01*
X130505692Y-108456000D01*
X136906000Y-108456000D01*
X137099638Y-108417483D01*
X137263796Y-108307796D01*
X142513092Y-103058500D01*
X144054750Y-103058500D01*
X144083750Y-103087500D01*
X144375411Y-103087500D01*
X144408866Y-103110359D01*
X144560000Y-103140964D01*
X145760000Y-103140964D01*
X145901190Y-103114397D01*
X145942989Y-103087500D01*
X146236250Y-103087500D01*
X146395000Y-102928750D01*
X146395000Y-102861190D01*
X146298327Y-102627801D01*
X146148464Y-102477939D01*
X146148464Y-102352500D01*
X146125543Y-102230688D01*
X146148464Y-102117500D01*
X146148464Y-101717500D01*
X146125543Y-101595688D01*
X146148464Y-101482500D01*
X146148464Y-101082500D01*
X146125543Y-100960688D01*
X146148464Y-100847500D01*
X146148464Y-100447500D01*
X146125543Y-100325688D01*
X146148464Y-100212500D01*
X146148464Y-99812500D01*
X146125543Y-99690688D01*
X146148464Y-99577500D01*
X146148464Y-99177500D01*
X146125543Y-99055688D01*
X146148464Y-98942500D01*
X146148464Y-98542500D01*
X146125543Y-98420688D01*
X146148464Y-98307500D01*
X146148464Y-97907500D01*
X146125543Y-97785688D01*
X146148464Y-97672500D01*
X146148464Y-97272500D01*
X146125543Y-97150688D01*
X146148464Y-97037500D01*
X146148464Y-96637500D01*
X146125543Y-96515688D01*
X146148464Y-96402500D01*
X146148464Y-96002500D01*
X146125543Y-95880688D01*
X146148464Y-95767500D01*
X146148464Y-95367500D01*
X146121897Y-95226310D01*
X146038454Y-95096635D01*
X145911134Y-95009641D01*
X145760000Y-94979036D01*
X144560000Y-94979036D01*
X144418810Y-95005603D01*
X144331943Y-95061500D01*
X133877092Y-95061500D01*
X131167796Y-92352204D01*
X131003638Y-92242517D01*
X130810000Y-92204000D01*
X130505692Y-92204000D01*
X130701413Y-91911083D01*
X130795117Y-91440000D01*
X130701413Y-90968917D01*
X130434565Y-90569552D01*
X130035200Y-90302704D01*
X129564117Y-90209000D01*
X129515883Y-90209000D01*
X129044800Y-90302704D01*
X128645435Y-90569552D01*
X128378587Y-90968917D01*
X128284883Y-91440000D01*
X128378587Y-91911083D01*
X128574308Y-92204000D01*
X128238464Y-92204000D01*
X128238464Y-90590000D01*
X128211897Y-90448810D01*
X128128454Y-90319135D01*
X128001134Y-90232141D01*
X127881000Y-90207814D01*
X127881000Y-89781000D01*
X137953000Y-89781000D01*
X137953000Y-91544777D01*
G36*
X133080908Y-95696500D02*
X132480092Y-95696500D01*
X131675796Y-94892204D01*
X131511638Y-94782517D01*
X131318000Y-94744000D01*
X130812856Y-94744000D01*
X130981476Y-94336890D01*
X130860155Y-94107000D01*
X129667000Y-94107000D01*
X129667000Y-94127000D01*
X129413000Y-94127000D01*
X129413000Y-94107000D01*
X129393000Y-94107000D01*
X129393000Y-93853000D01*
X129413000Y-93853000D01*
X129413000Y-93833000D01*
X129667000Y-93833000D01*
X129667000Y-93853000D01*
X130860155Y-93853000D01*
X130981476Y-93623110D01*
X130963063Y-93578655D01*
X133080908Y-95696500D01*
X133080908Y-95696500D01*
G37*
X133080908Y-95696500D02*
X132480092Y-95696500D01*
X131675796Y-94892204D01*
X131511638Y-94782517D01*
X131318000Y-94744000D01*
X130812856Y-94744000D01*
X130981476Y-94336890D01*
X130860155Y-94107000D01*
X129667000Y-94107000D01*
X129667000Y-94127000D01*
X129413000Y-94127000D01*
X129413000Y-94107000D01*
X129393000Y-94107000D01*
X129393000Y-93853000D01*
X129413000Y-93853000D01*
X129413000Y-93833000D01*
X129667000Y-93833000D01*
X129667000Y-93853000D01*
X130860155Y-93853000D01*
X130981476Y-93623110D01*
X130963063Y-93578655D01*
X133080908Y-95696500D01*
M02*
