G04 #@! TF.FileFunction,Legend,Top*
%FSLAX46Y46*%
G04 Gerber Fmt 4.6, Leading zero omitted, Abs format (unit mm)*
G04 Created by KiCad (PCBNEW 4.0.6-e0-6349~53~ubuntu16.04.1) date Thu Aug 24 17:13:08 2017*
%MOMM*%
%LPD*%
G01*
G04 APERTURE LIST*
%ADD10C,0.100000*%
%ADD11C,0.381000*%
%ADD12C,0.150000*%
%ADD13C,0.120000*%
G04 APERTURE END LIST*
D10*
D11*
X134825622Y-88803238D02*
X135986765Y-88803238D01*
X135406193Y-90835238D02*
X135406193Y-88803238D01*
X136664098Y-90835238D02*
X136664098Y-88803238D01*
X140147526Y-90835238D02*
X139179907Y-90835238D01*
X139179907Y-88803238D01*
X141695716Y-90835238D02*
X141695716Y-89770857D01*
X141598954Y-89577333D01*
X141405430Y-89480571D01*
X141018382Y-89480571D01*
X140824859Y-89577333D01*
X141695716Y-90738476D02*
X141502192Y-90835238D01*
X141018382Y-90835238D01*
X140824859Y-90738476D01*
X140728097Y-90544952D01*
X140728097Y-90351429D01*
X140824859Y-90157905D01*
X141018382Y-90061143D01*
X141502192Y-90061143D01*
X141695716Y-89964381D01*
X143534192Y-89480571D02*
X143534192Y-90835238D01*
X142663335Y-89480571D02*
X142663335Y-90544952D01*
X142760096Y-90738476D01*
X142953620Y-90835238D01*
X143243906Y-90835238D01*
X143437430Y-90738476D01*
X143534192Y-90641714D01*
X144501811Y-89480571D02*
X144501811Y-90835238D01*
X144501811Y-89674095D02*
X144598572Y-89577333D01*
X144792096Y-89480571D01*
X145082382Y-89480571D01*
X145275906Y-89577333D01*
X145372668Y-89770857D01*
X145372668Y-90835238D01*
X147211144Y-90738476D02*
X147017620Y-90835238D01*
X146630572Y-90835238D01*
X146437048Y-90738476D01*
X146340287Y-90641714D01*
X146243525Y-90448190D01*
X146243525Y-89867619D01*
X146340287Y-89674095D01*
X146437048Y-89577333D01*
X146630572Y-89480571D01*
X147017620Y-89480571D01*
X147211144Y-89577333D01*
X148082001Y-90835238D02*
X148082001Y-88803238D01*
X148952858Y-90835238D02*
X148952858Y-89770857D01*
X148856096Y-89577333D01*
X148662572Y-89480571D01*
X148372286Y-89480571D01*
X148178762Y-89577333D01*
X148082001Y-89674095D01*
X149920477Y-89480571D02*
X149920477Y-91512571D01*
X149920477Y-89577333D02*
X150114000Y-89480571D01*
X150501048Y-89480571D01*
X150694572Y-89577333D01*
X150791334Y-89674095D01*
X150888096Y-89867619D01*
X150888096Y-90448190D01*
X150791334Y-90641714D01*
X150694572Y-90738476D01*
X150501048Y-90835238D01*
X150114000Y-90835238D01*
X149920477Y-90738476D01*
X152629810Y-90835238D02*
X152629810Y-89770857D01*
X152533048Y-89577333D01*
X152339524Y-89480571D01*
X151952476Y-89480571D01*
X151758953Y-89577333D01*
X152629810Y-90738476D02*
X152436286Y-90835238D01*
X151952476Y-90835238D01*
X151758953Y-90738476D01*
X151662191Y-90544952D01*
X151662191Y-90351429D01*
X151758953Y-90157905D01*
X151952476Y-90061143D01*
X152436286Y-90061143D01*
X152629810Y-89964381D01*
X154468286Y-90835238D02*
X154468286Y-88803238D01*
X154468286Y-90738476D02*
X154274762Y-90835238D01*
X153887714Y-90835238D01*
X153694190Y-90738476D01*
X153597429Y-90641714D01*
X153500667Y-90448190D01*
X153500667Y-89867619D01*
X153597429Y-89674095D01*
X153694190Y-89577333D01*
X153887714Y-89480571D01*
X154274762Y-89480571D01*
X154468286Y-89577333D01*
X156693809Y-88803238D02*
X157854952Y-88803238D01*
X157274380Y-90835238D02*
X157274380Y-88803238D01*
X159306380Y-90738476D02*
X159112856Y-90835238D01*
X158725808Y-90835238D01*
X158532285Y-90738476D01*
X158435523Y-90544952D01*
X158435523Y-89770857D01*
X158532285Y-89577333D01*
X158725808Y-89480571D01*
X159112856Y-89480571D01*
X159306380Y-89577333D01*
X159403142Y-89770857D01*
X159403142Y-89964381D01*
X158435523Y-90157905D01*
X160177237Y-90738476D02*
X160370760Y-90835238D01*
X160757808Y-90835238D01*
X160951332Y-90738476D01*
X161048094Y-90544952D01*
X161048094Y-90448190D01*
X160951332Y-90254667D01*
X160757808Y-90157905D01*
X160467522Y-90157905D01*
X160273999Y-90061143D01*
X160177237Y-89867619D01*
X160177237Y-89770857D01*
X160273999Y-89577333D01*
X160467522Y-89480571D01*
X160757808Y-89480571D01*
X160951332Y-89577333D01*
X161628665Y-89480571D02*
X162402760Y-89480571D01*
X161918951Y-88803238D02*
X161918951Y-90544952D01*
X162015712Y-90738476D01*
X162209236Y-90835238D01*
X162402760Y-90835238D01*
X163854189Y-90738476D02*
X163660665Y-90835238D01*
X163273617Y-90835238D01*
X163080094Y-90738476D01*
X162983332Y-90544952D01*
X162983332Y-89770857D01*
X163080094Y-89577333D01*
X163273617Y-89480571D01*
X163660665Y-89480571D01*
X163854189Y-89577333D01*
X163950951Y-89770857D01*
X163950951Y-89964381D01*
X162983332Y-90157905D01*
X164821808Y-90835238D02*
X164821808Y-89480571D01*
X164821808Y-89867619D02*
X164918569Y-89674095D01*
X165015331Y-89577333D01*
X165208855Y-89480571D01*
X165402379Y-89480571D01*
D12*
X145985000Y-94795000D02*
X145985000Y-95045000D01*
X153735000Y-94795000D02*
X153735000Y-95142500D01*
X153735000Y-110945000D02*
X153735000Y-110597500D01*
X145985000Y-110945000D02*
X145985000Y-110597500D01*
X145985000Y-94795000D02*
X153735000Y-94795000D01*
X145985000Y-110945000D02*
X153735000Y-110945000D01*
X145985000Y-95045000D02*
X144560000Y-95045000D01*
D13*
X149614000Y-94068000D02*
X150614000Y-94068000D01*
X150614000Y-92368000D02*
X149614000Y-92368000D01*
X150940827Y-117214815D02*
G75*
G03X151404830Y-111867000I-1080827J2787815D01*
G01*
X148779173Y-117214815D02*
G75*
G02X148315170Y-111867000I1080827J2787815D01*
G01*
X150940429Y-116681479D02*
G75*
G03X150940000Y-112172316I-1080429J2254479D01*
G01*
X148779571Y-116681479D02*
G75*
G02X148780000Y-112172316I1080429J2254479D01*
G01*
X151405000Y-111867000D02*
X150940000Y-111867000D01*
X148780000Y-111867000D02*
X148315000Y-111867000D01*
X140598000Y-93818000D02*
X140598000Y-92618000D01*
X142358000Y-92618000D02*
X142358000Y-93818000D01*
X137804000Y-93818000D02*
X137804000Y-92618000D01*
X139564000Y-92618000D02*
X139564000Y-93818000D01*
X158080000Y-115434000D02*
X156880000Y-115434000D01*
X156880000Y-113674000D02*
X158080000Y-113674000D01*
X158080000Y-113402000D02*
X156880000Y-113402000D01*
X156880000Y-111642000D02*
X158080000Y-111642000D01*
X158080000Y-117466000D02*
X156880000Y-117466000D01*
X156880000Y-115706000D02*
X158080000Y-115706000D01*
D12*
X144526095Y-93178381D02*
X144526095Y-93987905D01*
X144573714Y-94083143D01*
X144621333Y-94130762D01*
X144716571Y-94178381D01*
X144907048Y-94178381D01*
X145002286Y-94130762D01*
X145049905Y-94083143D01*
X145097524Y-93987905D01*
X145097524Y-93178381D01*
X146097524Y-94178381D02*
X145526095Y-94178381D01*
X145811809Y-94178381D02*
X145811809Y-93178381D01*
X145716571Y-93321238D01*
X145621333Y-93416476D01*
X145526095Y-93464095D01*
X152741334Y-93575143D02*
X152693715Y-93622762D01*
X152550858Y-93670381D01*
X152455620Y-93670381D01*
X152312762Y-93622762D01*
X152217524Y-93527524D01*
X152169905Y-93432286D01*
X152122286Y-93241810D01*
X152122286Y-93098952D01*
X152169905Y-92908476D01*
X152217524Y-92813238D01*
X152312762Y-92718000D01*
X152455620Y-92670381D01*
X152550858Y-92670381D01*
X152693715Y-92718000D01*
X152741334Y-92765619D01*
X153693715Y-93670381D02*
X153122286Y-93670381D01*
X153408000Y-93670381D02*
X153408000Y-92670381D01*
X153312762Y-92813238D01*
X153217524Y-92908476D01*
X153122286Y-92956095D01*
X144803905Y-113482381D02*
X144803905Y-112482381D01*
X145042000Y-112482381D01*
X145184858Y-112530000D01*
X145280096Y-112625238D01*
X145327715Y-112720476D01*
X145375334Y-112910952D01*
X145375334Y-113053810D01*
X145327715Y-113244286D01*
X145280096Y-113339524D01*
X145184858Y-113434762D01*
X145042000Y-113482381D01*
X144803905Y-113482381D01*
X146327715Y-113482381D02*
X145756286Y-113482381D01*
X146042000Y-113482381D02*
X146042000Y-112482381D01*
X145946762Y-112625238D01*
X145851524Y-112720476D01*
X145756286Y-112768095D01*
X141311334Y-96210381D02*
X140978000Y-95734190D01*
X140739905Y-96210381D02*
X140739905Y-95210381D01*
X141120858Y-95210381D01*
X141216096Y-95258000D01*
X141263715Y-95305619D01*
X141311334Y-95400857D01*
X141311334Y-95543714D01*
X141263715Y-95638952D01*
X141216096Y-95686571D01*
X141120858Y-95734190D01*
X140739905Y-95734190D01*
X142263715Y-96210381D02*
X141692286Y-96210381D01*
X141978000Y-96210381D02*
X141978000Y-95210381D01*
X141882762Y-95353238D01*
X141787524Y-95448476D01*
X141692286Y-95496095D01*
X138517334Y-96210381D02*
X138184000Y-95734190D01*
X137945905Y-96210381D02*
X137945905Y-95210381D01*
X138326858Y-95210381D01*
X138422096Y-95258000D01*
X138469715Y-95305619D01*
X138517334Y-95400857D01*
X138517334Y-95543714D01*
X138469715Y-95638952D01*
X138422096Y-95686571D01*
X138326858Y-95734190D01*
X137945905Y-95734190D01*
X138898286Y-95305619D02*
X138945905Y-95258000D01*
X139041143Y-95210381D01*
X139279239Y-95210381D01*
X139374477Y-95258000D01*
X139422096Y-95305619D01*
X139469715Y-95400857D01*
X139469715Y-95496095D01*
X139422096Y-95638952D01*
X138850667Y-96210381D01*
X139469715Y-96210381D01*
X160107334Y-115006381D02*
X159774000Y-114530190D01*
X159535905Y-115006381D02*
X159535905Y-114006381D01*
X159916858Y-114006381D01*
X160012096Y-114054000D01*
X160059715Y-114101619D01*
X160107334Y-114196857D01*
X160107334Y-114339714D01*
X160059715Y-114434952D01*
X160012096Y-114482571D01*
X159916858Y-114530190D01*
X159535905Y-114530190D01*
X160440667Y-114006381D02*
X161059715Y-114006381D01*
X160726381Y-114387333D01*
X160869239Y-114387333D01*
X160964477Y-114434952D01*
X161012096Y-114482571D01*
X161059715Y-114577810D01*
X161059715Y-114815905D01*
X161012096Y-114911143D01*
X160964477Y-114958762D01*
X160869239Y-115006381D01*
X160583524Y-115006381D01*
X160488286Y-114958762D01*
X160440667Y-114911143D01*
X160107334Y-112974381D02*
X159774000Y-112498190D01*
X159535905Y-112974381D02*
X159535905Y-111974381D01*
X159916858Y-111974381D01*
X160012096Y-112022000D01*
X160059715Y-112069619D01*
X160107334Y-112164857D01*
X160107334Y-112307714D01*
X160059715Y-112402952D01*
X160012096Y-112450571D01*
X159916858Y-112498190D01*
X159535905Y-112498190D01*
X160964477Y-112307714D02*
X160964477Y-112974381D01*
X160726381Y-111926762D02*
X160488286Y-112641048D01*
X161107334Y-112641048D01*
X160107334Y-117038381D02*
X159774000Y-116562190D01*
X159535905Y-117038381D02*
X159535905Y-116038381D01*
X159916858Y-116038381D01*
X160012096Y-116086000D01*
X160059715Y-116133619D01*
X160107334Y-116228857D01*
X160107334Y-116371714D01*
X160059715Y-116466952D01*
X160012096Y-116514571D01*
X159916858Y-116562190D01*
X159535905Y-116562190D01*
X161012096Y-116038381D02*
X160535905Y-116038381D01*
X160488286Y-116514571D01*
X160535905Y-116466952D01*
X160631143Y-116419333D01*
X160869239Y-116419333D01*
X160964477Y-116466952D01*
X161012096Y-116514571D01*
X161059715Y-116609810D01*
X161059715Y-116847905D01*
X161012096Y-116943143D01*
X160964477Y-116990762D01*
X160869239Y-117038381D01*
X160631143Y-117038381D01*
X160535905Y-116990762D01*
X160488286Y-116943143D01*
M02*
