G04 #@! TF.FileFunction,Legend,Top*
%FSLAX46Y46*%
G04 Gerber Fmt 4.6, Leading zero omitted, Abs format (unit mm)*
G04 Created by KiCad (PCBNEW 4.0.7-e2-6376~58~ubuntu16.04.1) date Fri Sep  8 10:58:52 2017*
%MOMM*%
%LPD*%
G01*
G04 APERTURE LIST*
%ADD10C,0.100000*%
%ADD11C,0.381000*%
%ADD12C,0.150000*%
%ADD13C,0.120000*%
G04 APERTURE END LIST*
D10*
D11*
X134245050Y-88803238D02*
X135406193Y-88803238D01*
X134825621Y-90835238D02*
X134825621Y-88803238D01*
X136083526Y-90835238D02*
X136083526Y-88803238D01*
X139566954Y-90835238D02*
X138599335Y-90835238D01*
X138599335Y-88803238D01*
X141115144Y-90835238D02*
X141115144Y-89770857D01*
X141018382Y-89577333D01*
X140824858Y-89480571D01*
X140437810Y-89480571D01*
X140244287Y-89577333D01*
X141115144Y-90738476D02*
X140921620Y-90835238D01*
X140437810Y-90835238D01*
X140244287Y-90738476D01*
X140147525Y-90544952D01*
X140147525Y-90351429D01*
X140244287Y-90157905D01*
X140437810Y-90061143D01*
X140921620Y-90061143D01*
X141115144Y-89964381D01*
X142953620Y-89480571D02*
X142953620Y-90835238D01*
X142082763Y-89480571D02*
X142082763Y-90544952D01*
X142179524Y-90738476D01*
X142373048Y-90835238D01*
X142663334Y-90835238D01*
X142856858Y-90738476D01*
X142953620Y-90641714D01*
X143921239Y-89480571D02*
X143921239Y-90835238D01*
X143921239Y-89674095D02*
X144018000Y-89577333D01*
X144211524Y-89480571D01*
X144501810Y-89480571D01*
X144695334Y-89577333D01*
X144792096Y-89770857D01*
X144792096Y-90835238D01*
X146630572Y-90738476D02*
X146437048Y-90835238D01*
X146050000Y-90835238D01*
X145856476Y-90738476D01*
X145759715Y-90641714D01*
X145662953Y-90448190D01*
X145662953Y-89867619D01*
X145759715Y-89674095D01*
X145856476Y-89577333D01*
X146050000Y-89480571D01*
X146437048Y-89480571D01*
X146630572Y-89577333D01*
X147501429Y-90835238D02*
X147501429Y-88803238D01*
X148372286Y-90835238D02*
X148372286Y-89770857D01*
X148275524Y-89577333D01*
X148082000Y-89480571D01*
X147791714Y-89480571D01*
X147598190Y-89577333D01*
X147501429Y-89674095D01*
X149339905Y-90835238D02*
X149339905Y-88803238D01*
X150114000Y-88803238D01*
X150307524Y-88900000D01*
X150404285Y-88996762D01*
X150501047Y-89190286D01*
X150501047Y-89480571D01*
X150404285Y-89674095D01*
X150307524Y-89770857D01*
X150114000Y-89867619D01*
X149339905Y-89867619D01*
X152242762Y-90835238D02*
X152242762Y-89770857D01*
X152146000Y-89577333D01*
X151952476Y-89480571D01*
X151565428Y-89480571D01*
X151371905Y-89577333D01*
X152242762Y-90738476D02*
X152049238Y-90835238D01*
X151565428Y-90835238D01*
X151371905Y-90738476D01*
X151275143Y-90544952D01*
X151275143Y-90351429D01*
X151371905Y-90157905D01*
X151565428Y-90061143D01*
X152049238Y-90061143D01*
X152242762Y-89964381D01*
X154081238Y-90835238D02*
X154081238Y-88803238D01*
X154081238Y-90738476D02*
X153887714Y-90835238D01*
X153500666Y-90835238D01*
X153307142Y-90738476D01*
X153210381Y-90641714D01*
X153113619Y-90448190D01*
X153113619Y-89867619D01*
X153210381Y-89674095D01*
X153307142Y-89577333D01*
X153500666Y-89480571D01*
X153887714Y-89480571D01*
X154081238Y-89577333D01*
X155048857Y-90061143D02*
X156597047Y-90061143D01*
X157274381Y-88803238D02*
X158435524Y-88803238D01*
X157854952Y-90835238D02*
X157854952Y-88803238D01*
X159886952Y-90738476D02*
X159693428Y-90835238D01*
X159306380Y-90835238D01*
X159112857Y-90738476D01*
X159016095Y-90544952D01*
X159016095Y-89770857D01*
X159112857Y-89577333D01*
X159306380Y-89480571D01*
X159693428Y-89480571D01*
X159886952Y-89577333D01*
X159983714Y-89770857D01*
X159983714Y-89964381D01*
X159016095Y-90157905D01*
X160757809Y-90738476D02*
X160951332Y-90835238D01*
X161338380Y-90835238D01*
X161531904Y-90738476D01*
X161628666Y-90544952D01*
X161628666Y-90448190D01*
X161531904Y-90254667D01*
X161338380Y-90157905D01*
X161048094Y-90157905D01*
X160854571Y-90061143D01*
X160757809Y-89867619D01*
X160757809Y-89770857D01*
X160854571Y-89577333D01*
X161048094Y-89480571D01*
X161338380Y-89480571D01*
X161531904Y-89577333D01*
X162209237Y-89480571D02*
X162983332Y-89480571D01*
X162499523Y-88803238D02*
X162499523Y-90544952D01*
X162596284Y-90738476D01*
X162789808Y-90835238D01*
X162983332Y-90835238D01*
X164434761Y-90738476D02*
X164241237Y-90835238D01*
X163854189Y-90835238D01*
X163660666Y-90738476D01*
X163563904Y-90544952D01*
X163563904Y-89770857D01*
X163660666Y-89577333D01*
X163854189Y-89480571D01*
X164241237Y-89480571D01*
X164434761Y-89577333D01*
X164531523Y-89770857D01*
X164531523Y-89964381D01*
X163563904Y-90157905D01*
X165402380Y-90835238D02*
X165402380Y-89480571D01*
X165402380Y-89867619D02*
X165499141Y-89674095D01*
X165595903Y-89577333D01*
X165789427Y-89480571D01*
X165982951Y-89480571D01*
D12*
X145985000Y-94795000D02*
X145985000Y-95045000D01*
X153735000Y-94795000D02*
X153735000Y-95142500D01*
X153735000Y-110945000D02*
X153735000Y-110597500D01*
X145985000Y-110945000D02*
X145985000Y-110597500D01*
X145985000Y-94795000D02*
X153735000Y-94795000D01*
X145985000Y-110945000D02*
X153735000Y-110945000D01*
X145985000Y-95045000D02*
X144560000Y-95045000D01*
D13*
X149614000Y-94068000D02*
X150614000Y-94068000D01*
X150614000Y-92368000D02*
X149614000Y-92368000D01*
X150940827Y-117214815D02*
G75*
G03X151404830Y-111867000I-1080827J2787815D01*
G01*
X148779173Y-117214815D02*
G75*
G02X148315170Y-111867000I1080827J2787815D01*
G01*
X150940429Y-116681479D02*
G75*
G03X150940000Y-112172316I-1080429J2254479D01*
G01*
X148779571Y-116681479D02*
G75*
G02X148780000Y-112172316I1080429J2254479D01*
G01*
X151405000Y-111867000D02*
X150940000Y-111867000D01*
X148780000Y-111867000D02*
X148315000Y-111867000D01*
X140598000Y-93818000D02*
X140598000Y-92618000D01*
X142358000Y-92618000D02*
X142358000Y-93818000D01*
X137804000Y-93818000D02*
X137804000Y-92618000D01*
X139564000Y-92618000D02*
X139564000Y-93818000D01*
X158080000Y-115434000D02*
X156880000Y-115434000D01*
X156880000Y-113674000D02*
X158080000Y-113674000D01*
X158080000Y-113402000D02*
X156880000Y-113402000D01*
X156880000Y-111642000D02*
X158080000Y-111642000D01*
X158080000Y-117466000D02*
X156880000Y-117466000D01*
X156880000Y-115706000D02*
X158080000Y-115706000D01*
D12*
X144526095Y-93178381D02*
X144526095Y-93987905D01*
X144573714Y-94083143D01*
X144621333Y-94130762D01*
X144716571Y-94178381D01*
X144907048Y-94178381D01*
X145002286Y-94130762D01*
X145049905Y-94083143D01*
X145097524Y-93987905D01*
X145097524Y-93178381D01*
X146097524Y-94178381D02*
X145526095Y-94178381D01*
X145811809Y-94178381D02*
X145811809Y-93178381D01*
X145716571Y-93321238D01*
X145621333Y-93416476D01*
X145526095Y-93464095D01*
X152741334Y-93575143D02*
X152693715Y-93622762D01*
X152550858Y-93670381D01*
X152455620Y-93670381D01*
X152312762Y-93622762D01*
X152217524Y-93527524D01*
X152169905Y-93432286D01*
X152122286Y-93241810D01*
X152122286Y-93098952D01*
X152169905Y-92908476D01*
X152217524Y-92813238D01*
X152312762Y-92718000D01*
X152455620Y-92670381D01*
X152550858Y-92670381D01*
X152693715Y-92718000D01*
X152741334Y-92765619D01*
X153693715Y-93670381D02*
X153122286Y-93670381D01*
X153408000Y-93670381D02*
X153408000Y-92670381D01*
X153312762Y-92813238D01*
X153217524Y-92908476D01*
X153122286Y-92956095D01*
X144803905Y-113482381D02*
X144803905Y-112482381D01*
X145042000Y-112482381D01*
X145184858Y-112530000D01*
X145280096Y-112625238D01*
X145327715Y-112720476D01*
X145375334Y-112910952D01*
X145375334Y-113053810D01*
X145327715Y-113244286D01*
X145280096Y-113339524D01*
X145184858Y-113434762D01*
X145042000Y-113482381D01*
X144803905Y-113482381D01*
X146327715Y-113482381D02*
X145756286Y-113482381D01*
X146042000Y-113482381D02*
X146042000Y-112482381D01*
X145946762Y-112625238D01*
X145851524Y-112720476D01*
X145756286Y-112768095D01*
X141311334Y-96210381D02*
X140978000Y-95734190D01*
X140739905Y-96210381D02*
X140739905Y-95210381D01*
X141120858Y-95210381D01*
X141216096Y-95258000D01*
X141263715Y-95305619D01*
X141311334Y-95400857D01*
X141311334Y-95543714D01*
X141263715Y-95638952D01*
X141216096Y-95686571D01*
X141120858Y-95734190D01*
X140739905Y-95734190D01*
X142263715Y-96210381D02*
X141692286Y-96210381D01*
X141978000Y-96210381D02*
X141978000Y-95210381D01*
X141882762Y-95353238D01*
X141787524Y-95448476D01*
X141692286Y-95496095D01*
X138517334Y-96210381D02*
X138184000Y-95734190D01*
X137945905Y-96210381D02*
X137945905Y-95210381D01*
X138326858Y-95210381D01*
X138422096Y-95258000D01*
X138469715Y-95305619D01*
X138517334Y-95400857D01*
X138517334Y-95543714D01*
X138469715Y-95638952D01*
X138422096Y-95686571D01*
X138326858Y-95734190D01*
X137945905Y-95734190D01*
X138898286Y-95305619D02*
X138945905Y-95258000D01*
X139041143Y-95210381D01*
X139279239Y-95210381D01*
X139374477Y-95258000D01*
X139422096Y-95305619D01*
X139469715Y-95400857D01*
X139469715Y-95496095D01*
X139422096Y-95638952D01*
X138850667Y-96210381D01*
X139469715Y-96210381D01*
X160107334Y-115006381D02*
X159774000Y-114530190D01*
X159535905Y-115006381D02*
X159535905Y-114006381D01*
X159916858Y-114006381D01*
X160012096Y-114054000D01*
X160059715Y-114101619D01*
X160107334Y-114196857D01*
X160107334Y-114339714D01*
X160059715Y-114434952D01*
X160012096Y-114482571D01*
X159916858Y-114530190D01*
X159535905Y-114530190D01*
X160440667Y-114006381D02*
X161059715Y-114006381D01*
X160726381Y-114387333D01*
X160869239Y-114387333D01*
X160964477Y-114434952D01*
X161012096Y-114482571D01*
X161059715Y-114577810D01*
X161059715Y-114815905D01*
X161012096Y-114911143D01*
X160964477Y-114958762D01*
X160869239Y-115006381D01*
X160583524Y-115006381D01*
X160488286Y-114958762D01*
X160440667Y-114911143D01*
X160107334Y-112974381D02*
X159774000Y-112498190D01*
X159535905Y-112974381D02*
X159535905Y-111974381D01*
X159916858Y-111974381D01*
X160012096Y-112022000D01*
X160059715Y-112069619D01*
X160107334Y-112164857D01*
X160107334Y-112307714D01*
X160059715Y-112402952D01*
X160012096Y-112450571D01*
X159916858Y-112498190D01*
X159535905Y-112498190D01*
X160964477Y-112307714D02*
X160964477Y-112974381D01*
X160726381Y-111926762D02*
X160488286Y-112641048D01*
X161107334Y-112641048D01*
X160107334Y-117038381D02*
X159774000Y-116562190D01*
X159535905Y-117038381D02*
X159535905Y-116038381D01*
X159916858Y-116038381D01*
X160012096Y-116086000D01*
X160059715Y-116133619D01*
X160107334Y-116228857D01*
X160107334Y-116371714D01*
X160059715Y-116466952D01*
X160012096Y-116514571D01*
X159916858Y-116562190D01*
X159535905Y-116562190D01*
X161012096Y-116038381D02*
X160535905Y-116038381D01*
X160488286Y-116514571D01*
X160535905Y-116466952D01*
X160631143Y-116419333D01*
X160869239Y-116419333D01*
X160964477Y-116466952D01*
X161012096Y-116514571D01*
X161059715Y-116609810D01*
X161059715Y-116847905D01*
X161012096Y-116943143D01*
X160964477Y-116990762D01*
X160869239Y-117038381D01*
X160631143Y-117038381D01*
X160535905Y-116990762D01*
X160488286Y-116943143D01*
M02*
